<svg width="156" height="28" viewBox="0 0 156 28" fill="none" xmlns="http://www.w3.org/2000/svg">
<path d="M14.724 24.2789C14.3273 24.4189 13.674 24.4189 13.2773 24.2789C9.89398 23.1239 2.33398 18.3055 2.33398 10.1389C2.33398 6.53385 5.23898 3.61719 8.82065 3.61719C10.944 3.61719 12.8223 4.64385 14.0007 6.23052C14.6001 5.42071 15.3808 4.76253 16.2803 4.30872C17.1798 3.85491 18.1731 3.61807 19.1807 3.61719C22.7623 3.61719 25.6673 6.53385 25.6673 10.1389C25.6673 18.3055 18.1073 23.1239 14.724 24.2789Z" stroke="black" stroke-width="1.5" stroke-linecap="round" stroke-linejoin="round"/>
<path d="M74.278 2.33203L70.0547 6.56703M81.7214 2.33203L85.9447 6.56703" stroke="black" stroke-width="1.5" stroke-miterlimit="10" stroke-linecap="round" stroke-linejoin="round"/>
<path d="M66.334 9.15755C66.334 6.99922 67.489 6.82422 68.924 6.82422H87.0773C88.5123 6.82422 89.6673 6.99922 89.6673 9.15755C89.6673 11.6659 88.5123 11.4909 87.0773 11.4909H68.924C67.489 11.4909 66.334 11.6659 66.334 9.15755Z" stroke="black" stroke-width="1.5"/>
<path d="M75.3873 16.3346V20.4763M80.754 16.3346V20.4763M68.084 11.668L69.729 21.748C70.1023 24.0113 71.0007 25.668 74.3373 25.668H81.3723C85.0007 25.668 85.5373 24.0813 85.9573 21.888L87.9173 11.668" stroke="black" stroke-width="1.5" stroke-linecap="round"/>
<path d="M142.187 12.6812C142.07 12.6695 141.93 12.6695 141.802 12.6812C140.463 12.6357 139.194 12.0708 138.264 11.1062C137.335 10.1415 136.817 8.85274 136.82 7.51287C136.82 4.65454 139.13 2.33287 142 2.33287C142.68 2.32062 143.355 2.44231 143.988 2.69102C144.62 2.93972 145.197 3.31056 145.687 3.78235C146.176 4.25415 146.567 4.81767 146.838 5.44074C147.11 6.06381 147.256 6.73423 147.268 7.41371C147.28 8.09319 147.159 8.76843 146.91 9.40088C146.661 10.0333 146.29 10.6106 145.819 11.0997C145.347 11.5889 144.783 11.9803 144.16 12.2516C143.537 12.523 142.867 12.669 142.187 12.6812ZM136.354 16.9862C133.53 18.8762 133.53 21.9562 136.354 23.8345C139.562 25.9812 144.824 25.9812 148.032 23.8345C150.855 21.9445 150.855 18.8645 148.032 16.9862C144.835 14.8512 139.574 14.8512 136.354 16.9862Z" stroke="black" stroke-width="1.5" stroke-linecap="round" stroke-linejoin="round"/>
</svg>
