<svg width="32" height="32" viewBox="0 0 32 32" fill="none" xmlns="http://www.w3.org/2000/svg">
<path d="M8 13.3327V10.666C8 6.25268 9.33333 2.66602 16 2.66602C22.6667 2.66602 24 6.25268 24 10.666V13.3327" stroke="#292D32" stroke-width="2" stroke-linecap="round" stroke-linejoin="round"/>
<path d="M16.0013 24.6667C17.8423 24.6667 19.3346 23.1743 19.3346 21.3333C19.3346 19.4924 17.8423 18 16.0013 18C14.1604 18 12.668 19.4924 12.668 21.3333C12.668 23.1743 14.1604 24.6667 16.0013 24.6667Z" stroke="#292D32" stroke-width="2" stroke-linecap="round" stroke-linejoin="round"/>
<path d="M22.668 29.334H9.33464C4.0013 29.334 2.66797 28.0007 2.66797 22.6673V20.0007C2.66797 14.6673 4.0013 13.334 9.33464 13.334H22.668C28.0013 13.334 29.3346 14.6673 29.3346 20.0007V22.6673C29.3346 28.0007 28.0013 29.334 22.668 29.334Z" stroke="#292D32" stroke-width="2" stroke-linecap="round" stroke-linejoin="round"/>
</svg>
