<svg width="26" height="26" viewBox="0 0 26 26" fill="none" xmlns="http://www.w3.org/2000/svg">
<path d="M13.0212 3.15234C9.43532 3.15234 6.52115 6.06651 6.52115 9.65234V12.7832C6.52115 13.444 6.23948 14.4515 5.90365 15.0148L4.65782 17.084C3.88865 18.3623 4.41949 19.7815 5.82782 20.2582C10.497 21.8182 15.5345 21.8182 20.2037 20.2582C21.5145 19.8248 22.0887 18.2757 21.3737 17.084L20.1278 15.0148C19.8028 14.4515 19.5212 13.444 19.5212 12.7832V9.65234C19.5212 6.07734 16.5962 3.15234 13.0212 3.15234Z" stroke="#049473" stroke-width="1.5" stroke-miterlimit="10" stroke-linecap="round"/>
<path d="M15.0259 3.46656C14.6901 3.36906 14.3434 3.29323 13.9859 3.2499C12.9459 3.1199 11.9492 3.19573 11.0176 3.46656C11.3317 2.6649 12.1117 2.10156 13.0217 2.10156C13.9317 2.10156 14.7117 2.6649 15.0259 3.46656Z" stroke="#049473" stroke-width="1.5" stroke-miterlimit="10" stroke-linecap="round" stroke-linejoin="round"/>
<path d="M16.2715 20.6484C16.2715 22.4359 14.809 23.8984 13.0215 23.8984C12.1332 23.8984 11.3098 23.5301 10.7248 22.9451C10.1398 22.3601 9.77148 21.5368 9.77148 20.6484" stroke="#049473" stroke-width="1.5" stroke-miterlimit="10"/>
</svg>
