<svg width="32" height="32" viewBox="0 0 32 32" fill="none" xmlns="http://www.w3.org/2000/svg">
<path d="M18.668 8.26595V13.3327C14.948 13.3993 13.4013 14.946 13.3346 18.666H8.26797C4.26797 18.666 2.66797 17.0661 2.66797 13.0661V8.26595C2.66797 4.26595 4.26797 2.66602 8.26797 2.66602H13.068C17.068 2.66602 18.668 4.26595 18.668 8.26595Z" stroke="#292D32" stroke-width="2" stroke-linecap="round" stroke-linejoin="round"/>
<path d="M9.28026 7.82742C8.57359 7.34742 7.64026 7.34745 6.93359 7.85412" stroke="#292D32" stroke-width="2" stroke-miterlimit="10" stroke-linecap="round" stroke-linejoin="round"/>
<path d="M14.6142 7.82742C13.9076 7.34742 12.9742 7.34745 12.2676 7.85412" stroke="#292D32" stroke-width="2" stroke-miterlimit="10" stroke-linecap="round" stroke-linejoin="round"/>
<path d="M10.8797 15.2262H7.78641C7.38641 15.2262 7.06641 14.9062 7.06641 14.5062C7.06641 12.5195 8.67974 10.9062 10.6664 10.9062C11.5197 10.9062 12.3064 11.1995 12.9197 11.6929" stroke="#292D32" stroke-width="2" stroke-miterlimit="10" stroke-linecap="round" stroke-linejoin="round"/>
<path d="M29.332 18.9339V23.734C29.332 27.734 27.732 29.334 23.732 29.334H18.932C14.932 29.334 13.332 27.734 13.332 23.734V18.6673C13.3987 14.9473 14.9454 13.4007 18.6654 13.334H23.732C27.732 13.334 29.332 14.9339 29.332 18.9339Z" stroke="#292D32" stroke-width="2" stroke-linecap="round" stroke-linejoin="round"/>
<path d="M19.9463 18.1595C19.2396 18.6395 18.3063 18.6395 17.5996 18.1328" stroke="#292D32" stroke-width="2" stroke-miterlimit="10" stroke-linecap="round" stroke-linejoin="round"/>
<path d="M25.2803 18.1595C24.5736 18.6395 23.6403 18.6395 22.9336 18.1328" stroke="#292D32" stroke-width="2" stroke-miterlimit="10" stroke-linecap="round" stroke-linejoin="round"/>
<path d="M18.4524 21.5742H24.2124C24.6124 21.5742 24.9324 21.8941 24.9324 22.2941C24.9324 24.2808 23.3191 25.8942 21.3324 25.8942C19.3458 25.8942 17.7324 24.2808 17.7324 22.2941C17.7324 21.8941 18.0524 21.5742 18.4524 21.5742Z" stroke="#292D32" stroke-width="2" stroke-miterlimit="10" stroke-linecap="round" stroke-linejoin="round"/>
</svg>
