<svg width="32" height="32" viewBox="0 0 32 32" fill="none" xmlns="http://www.w3.org/2000/svg">
<path d="M15.999 18.666H17.3324C18.799 18.666 19.999 17.466 19.999 15.9993V2.66602H7.99902C5.99902 2.66602 4.25237 3.77267 3.3457 5.39933" stroke="#292D32" stroke-width="2" stroke-linecap="round" stroke-linejoin="round"/>
<path d="M2.66602 22.666C2.66602 24.8793 4.45268 26.666 6.66602 26.666H7.99935C7.99935 25.1993 9.19935 23.9993 10.666 23.9993C12.1327 23.9993 13.3327 25.1993 13.3327 26.666H18.666C18.666 25.1993 19.866 23.9993 21.3327 23.9993C22.7993 23.9993 23.9993 25.1993 23.9993 26.666H25.3327C27.546 26.666 29.3327 24.8793 29.3327 22.666V18.666H25.3327C24.5993 18.666 23.9993 18.066 23.9993 17.3327V13.3327C23.9993 12.5993 24.5993 11.9993 25.3327 11.9993H27.0527L24.7727 8.0127C24.2927 7.18603 23.4127 6.66602 22.4527 6.66602H19.9993V15.9993C19.9993 17.466 18.7993 18.666 17.3327 18.666H15.9993" stroke="#292D32" stroke-width="2" stroke-linecap="round" stroke-linejoin="round"/>
<path d="M10.6667 29.3333C12.1394 29.3333 13.3333 28.1394 13.3333 26.6667C13.3333 25.1939 12.1394 24 10.6667 24C9.19391 24 8 25.1939 8 26.6667C8 28.1394 9.19391 29.3333 10.6667 29.3333Z" stroke="#292D32" stroke-width="2" stroke-linecap="round" stroke-linejoin="round"/>
<path d="M21.3327 29.3333C22.8054 29.3333 23.9993 28.1394 23.9993 26.6667C23.9993 25.1939 22.8054 24 21.3327 24C19.8599 24 18.666 25.1939 18.666 26.6667C18.666 28.1394 19.8599 29.3333 21.3327 29.3333Z" stroke="#292D32" stroke-width="2" stroke-linecap="round" stroke-linejoin="round"/>
<path d="M29.3333 16V18.6667H25.3333C24.6 18.6667 24 18.0667 24 17.3333V13.3333C24 12.6 24.6 12 25.3333 12H27.0533L29.3333 16Z" stroke="#292D32" stroke-width="2" stroke-linecap="round" stroke-linejoin="round"/>
<path d="M2.66602 10.666H10.666" stroke="#292D32" stroke-width="2" stroke-linecap="round" stroke-linejoin="round"/>
<path d="M2.66602 14.666H7.99935" stroke="#292D32" stroke-width="2" stroke-linecap="round" stroke-linejoin="round"/>
<path d="M2.66602 18.666H5.33268" stroke="#292D32" stroke-width="2" stroke-linecap="round" stroke-linejoin="round"/>
</svg>
