<svg width="32" height="32" viewBox="0 0 32 32" fill="none" xmlns="http://www.w3.org/2000/svg">
<path d="M5.87955 22.334C5.55955 26.1873 8.46622 29.334 12.3329 29.334H18.7196C23.0662 29.334 26.0529 25.8273 25.3329 21.534C24.5729 17.0273 20.2262 13.334 15.6529 13.334C10.6929 13.334 6.29289 17.3873 5.87955 22.334Z" stroke="#292D32" stroke-width="2" stroke-linecap="round" stroke-linejoin="round"/>
<path d="M13.9603 10.0006C15.8012 10.0006 17.2936 8.50827 17.2936 6.66732C17.2936 4.82637 15.8012 3.33398 13.9603 3.33398C12.1193 3.33398 10.627 4.82637 10.627 6.66732C10.627 8.50827 12.1193 10.0006 13.9603 10.0006Z" stroke="#292D32" stroke-width="2" stroke-linecap="round" stroke-linejoin="round"/>
<path d="M23.0671 11.6009C24.5398 11.6009 25.7337 10.407 25.7337 8.93425C25.7337 7.46149 24.5398 6.26758 23.0671 6.26758C21.5943 6.26758 20.4004 7.46149 20.4004 8.93425C20.4004 10.407 21.5943 11.6009 23.0671 11.6009Z" stroke="#292D32" stroke-width="2" stroke-linecap="round" stroke-linejoin="round"/>
<path d="M28 16.9336C29.1046 16.9336 30 16.0382 30 14.9336C30 13.829 29.1046 12.9336 28 12.9336C26.8954 12.9336 26 13.829 26 14.9336C26 16.0382 26.8954 16.9336 28 16.9336Z" stroke="#292D32" stroke-width="2" stroke-linecap="round" stroke-linejoin="round"/>
<path d="M5.29362 14.2669C6.76638 14.2669 7.96029 13.073 7.96029 11.6003C7.96029 10.1275 6.76638 8.93359 5.29362 8.93359C3.82086 8.93359 2.62695 10.1275 2.62695 11.6003C2.62695 13.073 3.82086 14.2669 5.29362 14.2669Z" stroke="#292D32" stroke-width="2" stroke-linecap="round" stroke-linejoin="round"/>
</svg>
