<svg width="32" height="32" viewBox="0 0 32 32" fill="none" xmlns="http://www.w3.org/2000/svg">
<path d="M29.2927 24.4393C29.2927 24.9193 29.186 25.4127 28.9593 25.8927C28.7327 26.3727 28.4394 26.826 28.0527 27.2527C27.3994 27.9727 26.6793 28.4927 25.866 28.826C25.066 29.1594 24.1994 29.3327 23.266 29.3327C21.906 29.3327 20.4527 29.0127 18.9193 28.3594C17.386 27.706 15.8527 26.826 14.3327 25.7194C12.7993 24.5994 11.346 23.3593 9.95935 21.986C8.58602 20.5993 7.34602 19.146 6.23935 17.626C5.14602 16.106 4.26602 14.586 3.62602 13.0793C2.98602 11.5593 2.66602 10.106 2.66602 8.71935C2.66602 7.81268 2.82602 6.94602 3.14602 6.14602C3.46602 5.33268 3.97268 4.58602 4.67935 3.91935C5.53268 3.07935 6.46602 2.66602 7.45268 2.66602C7.82602 2.66602 8.19935 2.74602 8.53268 2.90602C8.87935 3.06602 9.18602 3.30602 9.42602 3.65268L12.5193 8.01268C12.7593 8.34602 12.9327 8.65268 13.0527 8.94602C13.1727 9.22602 13.2393 9.50602 13.2393 9.75935C13.2393 10.0793 13.146 10.3993 12.9593 10.706C12.786 11.0127 12.5327 11.3327 12.2127 11.6527L11.1993 12.706C11.0527 12.8527 10.986 13.026 10.986 13.2393C10.986 13.346 10.9993 13.4393 11.026 13.546C11.066 13.6527 11.106 13.7327 11.1327 13.8127C11.3727 14.2527 11.786 14.826 12.3727 15.5193C12.9727 16.2127 13.6127 16.9193 14.306 17.626C15.026 18.3327 15.7193 18.986 16.426 19.586C17.1193 20.1727 17.6927 20.5727 18.146 20.8127C18.2127 20.8393 18.2927 20.8793 18.386 20.9193C18.4927 20.9593 18.5993 20.9727 18.7193 20.9727C18.946 20.9727 19.1193 20.8927 19.266 20.746L20.2793 19.746C20.6127 19.4127 20.9327 19.1593 21.2393 18.9993C21.546 18.8127 21.8527 18.7193 22.186 18.7193C22.4393 18.7193 22.706 18.7727 22.9993 18.8927C23.2927 19.0127 23.5994 19.186 23.9327 19.4127L28.346 22.546C28.6927 22.786 28.9327 23.066 29.0793 23.3993C29.2127 23.7327 29.2927 24.066 29.2927 24.4393Z" stroke="#292D32" stroke-width="2" stroke-miterlimit="10"/>
</svg>
