<svg width="26" height="26" viewBox="0 0 26 26" fill="none" xmlns="http://www.w3.org/2000/svg">
<path d="M13.1747 11.7752C13.0664 11.7643 12.9364 11.7643 12.8172 11.7752C10.2389 11.6885 8.19141 9.57602 8.19141 6.97602C8.19141 4.32185 10.3364 2.16602 13.0014 2.16602C15.6556 2.16602 17.8114 4.32185 17.8114 6.97602C17.8006 9.57602 15.7531 11.6885 13.1747 11.7752Z" stroke="#049473" stroke-width="1.5" stroke-linecap="round" stroke-linejoin="round"/>
<path d="M7.75531 15.774C5.13365 17.529 5.13365 20.389 7.75531 22.1332C10.7345 24.1265 15.6203 24.1265 18.5995 22.1332C21.2211 20.3782 21.2211 17.5182 18.5995 15.774C15.6311 13.7915 10.7453 13.7915 7.75531 15.774Z" stroke="#049473" stroke-width="1.5" stroke-linecap="round" stroke-linejoin="round"/>
</svg>
