<svg width="32" height="32" viewBox="0 0 32 32" fill="none" xmlns="http://www.w3.org/2000/svg">
<path d="M16.2134 14.4927C16.0801 14.4793 15.9201 14.4793 15.7734 14.4927C12.6001 14.386 10.0801 11.786 10.0801 8.58602C10.0801 5.31935 12.7201 2.66602 16.0001 2.66602C19.2667 2.66602 21.9201 5.31935 21.9201 8.58602C21.9067 11.786 19.3867 14.386 16.2134 14.4927Z" stroke="#1D1D1F" stroke-width="2" stroke-linecap="round" stroke-linejoin="round"/>
<path d="M9.54695 19.414C6.32029 21.574 6.32029 25.094 9.54695 27.2407C13.2136 29.694 19.227 29.694 22.8936 27.2407C26.1203 25.0807 26.1203 21.5607 22.8936 19.414C19.2403 16.974 13.227 16.974 9.54695 19.414Z" stroke="#1D1D1F" stroke-width="2" stroke-linecap="round" stroke-linejoin="round"/>
</svg>
