<svg width="32" height="32" viewBox="0 0 32 32" fill="none" xmlns="http://www.w3.org/2000/svg">
<path d="M16.0007 15.9993C19.6825 15.9993 22.6673 13.0146 22.6673 9.33268C22.6673 5.65078 19.6825 2.66602 16.0007 2.66602C12.3188 2.66602 9.33398 5.65078 9.33398 9.33268C9.33398 13.0146 12.3188 15.9993 16.0007 15.9993Z" stroke="#292D32" stroke-width="2" stroke-linecap="round" stroke-linejoin="round"/>
<path d="M4.54688 29.3333C4.54688 24.1733 9.6802 20 16.0002 20C17.2802 20 18.5202 20.1733 19.6802 20.4933" stroke="#292D32" stroke-width="2" stroke-linecap="round" stroke-linejoin="round"/>
<path d="M29.3327 23.9993C29.3327 24.426 29.2794 24.8393 29.1727 25.2393C29.0527 25.7727 28.8394 26.2927 28.5594 26.746C27.6394 28.2927 25.946 29.3327 23.9993 29.3327C22.626 29.3327 21.386 28.8126 20.4527 27.9593C20.0527 27.6126 19.706 27.1993 19.4393 26.746C18.946 25.946 18.666 24.9993 18.666 23.9993C18.666 22.5593 19.2394 21.2394 20.1727 20.2794C21.146 19.2794 22.506 18.666 23.9993 18.666C25.5727 18.666 26.9994 19.346 27.9594 20.4394C28.8127 21.386 29.3327 22.6393 29.3327 23.9993Z" stroke="#292D32" stroke-width="2" stroke-miterlimit="10" stroke-linecap="round" stroke-linejoin="round"/>
<path d="M25.987 23.9746H22.0137" stroke="#292D32" stroke-width="2" stroke-miterlimit="10" stroke-linecap="round" stroke-linejoin="round"/>
<path d="M24 22.0273V26.014" stroke="#292D32" stroke-width="2" stroke-miterlimit="10" stroke-linecap="round" stroke-linejoin="round"/>
</svg>
