<svg width="211" height="44" viewBox="0 0 211 44" fill="none" xmlns="http://www.w3.org/2000/svg">
<g clip-path="url(#clip0_774_4308)">
<path d="M13.989 15.6925H0.833984V43.255H13.989C19.5315 43.255 24.0165 40.6344 24.0165 37.4056V21.5419C24.024 18.3088 19.5315 15.6925 13.989 15.6925ZM16.614 37.1038C16.614 38.355 14.874 39.3744 12.7215 39.3744H8.64148V19.63H12.7215C14.8665 19.63 16.614 20.645 16.614 21.9006V37.1038Z" fill="#FBFBFB"/>
<path d="M49.5091 19.3806V15.6619H29.0566V19.3806V27.2906V31.0137V39.5056V43.2244H49.5091V39.5056H35.4316V31.0137H47.1541V27.2906H35.4316V19.3806H49.5091Z" fill="#FBFBFB"/>
<path d="M59.7623 15.6138L52.2773 43.1763H58.7348L60.1448 37.9875H69.7148L71.1248 43.1763H77.5823L70.0973 15.6138H59.7623ZM61.1573 34.2731L64.9298 20.3738L68.7023 34.2731H61.1573Z" fill="#FBFBFB"/>
<path d="M87.9316 39.5625V15.7188H81.5566V39.5625V43.2812H102.009V39.5625H87.9316Z" fill="#FBFBFB"/>
<path d="M125.042 19.3369V15.6181H110.965H104.59V19.3369V43.1806H110.965V31.635H122.665V27.9119H110.965V19.3369H125.042Z" fill="#FBFBFB"/>
<path d="M133.998 39.5625V15.7188H127.623V39.5625V43.2812H148.076V39.5625H133.998Z" fill="#FBFBFB"/>
<path d="M163.217 15.5H159.219C153.969 15.5 149.717 17.9806 149.717 21.0431V37.9569C149.717 41.0194 153.969 43.5 159.219 43.5H163.217C168.467 43.5 172.719 41.0194 172.719 37.9569V21.0431C172.719 17.9806 168.467 15.5 163.217 15.5ZM165.122 37.5413C165.122 38.8013 163.374 39.8206 161.214 39.8206C159.054 39.8206 157.307 38.8013 157.307 37.5413V21.4631C157.307 20.2031 159.054 19.1838 161.214 19.1838C163.374 19.1838 165.122 20.2031 165.122 21.4631V37.5413Z" fill="#FBFBFB"/>
<path d="M190.734 43.1413L193.479 27.9075L196.224 43.1413H205.876L210.834 15.6531H204.421L200.626 36.6925L196.839 15.6531H190.119L186.241 37.1519L182.371 15.6531H175.959L180.909 43.1413H190.734Z" fill="#FBFBFB"/>
</g>
<defs>
<clipPath id="clip0_774_4308">
<rect width="210" height="43.1667" fill="white" transform="translate(0.833984 0.333313)"/>
</clipPath>
</defs>
</svg>
