<svg width="180" height="37" viewBox="0 0 180 37" fill="none" xmlns="http://www.w3.org/2000/svg">
<g clip-path="url(#clip0_258_5751)">
<path d="M11.2757 13.1641H0V36.7891H11.2757C16.0264 36.7891 19.8707 34.5428 19.8707 31.7753V18.1778C19.8771 15.4066 16.0264 13.1641 11.2757 13.1641ZM13.5257 31.5166C13.5257 32.5891 12.0343 33.4628 10.1893 33.4628H6.69214V16.5391H10.1893C12.0279 16.5391 13.5257 17.4091 13.5257 18.4853V31.5166Z" fill="#049473"/>
<path d="M41.7221 16.3262V13.1387H24.1914V16.3262V23.1062V26.2974V33.5762V36.7637H41.7221V33.5762H29.6557V26.2974H39.7035V23.1062H29.6557V16.3262H41.7221Z" fill="#049473"/>
<path d="M50.5095 13.0977L44.0938 36.7227H49.6288L50.8373 32.2752H59.0402L60.2488 36.7227H65.7838L59.368 13.0977H50.5095ZM51.7052 29.0914L54.9388 17.1777L58.1723 29.0914H51.7052Z" fill="#049473"/>
<path d="M74.6557 33.625V13.1875H69.1914V33.625V36.8125H86.7221V33.625H74.6557Z" fill="#049473"/>
<path d="M106.464 16.2891V13.1016H94.3979H88.9336V16.2891V36.7266H94.3979V26.8303H104.426V23.6391H94.3979V16.2891H106.464Z" fill="#049473"/>
<path d="M114.14 33.625V13.1875H108.676V33.625V36.8125H126.206V33.625H114.14Z" fill="#049473"/>
<path d="M139.185 13H135.758C131.258 13 127.613 15.1263 127.613 17.7513V32.2488C127.613 34.8738 131.258 37 135.758 37H139.185C143.685 37 147.33 34.8738 147.33 32.2488V17.7513C147.33 15.1263 143.685 13 139.185 13ZM140.818 31.8925C140.818 32.9725 139.32 33.8463 137.468 33.8463C135.617 33.8463 134.119 32.9725 134.119 31.8925V18.1112C134.119 17.0312 135.617 16.1575 137.468 16.1575C139.32 16.1575 140.818 17.0312 140.818 18.1112V31.8925Z" fill="#049473"/>
<path d="M162.772 36.6921L165.125 23.6346L167.477 36.6921H175.751L180 13.1309H174.504L171.251 31.1646L168.005 13.1309H162.245L158.921 31.5584L155.604 13.1309H150.107L154.35 36.6921H162.772Z" fill="#049473"/>
</g>
<defs>
<clipPath id="clip0_258_5751">
<rect width="180" height="37" fill="white"/>
</clipPath>
</defs>
</svg>
