<svg width="26" height="26" viewBox="0 0 26 26" fill="none" xmlns="http://www.w3.org/2000/svg">
<path d="M16.8778 12.9994C16.8778 15.1444 15.1444 16.8778 12.9994 16.8778C10.8544 16.8778 9.12109 15.1444 9.12109 12.9994C9.12109 10.8544 10.8544 9.12109 12.9994 9.12109C15.1444 9.12109 16.8778 10.8544 16.8778 12.9994Z" stroke="#049473" stroke-width="1.5" stroke-linecap="round" stroke-linejoin="round"/>
<path d="M13.0008 21.9585C16.825 21.9585 20.3891 19.7051 22.87 15.8051C23.845 14.2776 23.845 11.7101 22.87 10.1826C20.3891 6.28263 16.825 4.0293 13.0008 4.0293C9.17664 4.0293 5.61247 6.28263 3.13164 10.1826C2.15664 11.7101 2.15664 14.2776 3.13164 15.8051C5.61247 19.7051 9.17664 21.9585 13.0008 21.9585Z" stroke="#049473" stroke-width="1.5" stroke-linecap="round" stroke-linejoin="round"/>
</svg>
