<svg width="26" height="26" viewBox="0 0 26 26" fill="none" xmlns="http://www.w3.org/2000/svg">
<path d="M19.544 14.6798C19.089 15.124 18.829 15.7631 18.894 16.4456C18.9915 17.6156 20.064 18.4715 21.234 18.4715H23.2923V19.7606C23.2923 22.0031 21.4615 23.834 19.219 23.834H6.78232C4.53982 23.834 2.70898 22.0031 2.70898 19.7606V12.4698C2.70898 10.2273 4.53982 8.39648 6.78232 8.39648H19.219C21.4615 8.39648 23.2923 10.2273 23.2923 12.4698V14.0298H21.104C20.4973 14.0298 19.9448 14.2681 19.544 14.6798Z" stroke="#049473" stroke-width="1.5" stroke-linecap="round" stroke-linejoin="round"/>
<path d="M2.70898 13.4449V8.49412C2.70898 7.20495 3.49982 6.05657 4.70232 5.60157L13.304 2.35157C14.6473 1.8424 16.0882 2.8391 16.0882 4.27994V8.39659" stroke="#049473" stroke-width="1.5" stroke-linecap="round" stroke-linejoin="round"/>
<path d="M24.4394 15.1343V17.366C24.4394 17.9618 23.9627 18.4493 23.356 18.4709H21.2327C20.0627 18.4709 18.9902 17.6151 18.8927 16.4451C18.8277 15.7626 19.0877 15.1234 19.5427 14.6793C19.9435 14.2676 20.496 14.0293 21.1027 14.0293H23.356C23.9627 14.051 24.4394 14.5384 24.4394 15.1343Z" stroke="#049473" stroke-width="1.5" stroke-linecap="round" stroke-linejoin="round"/>
<path d="M7.58398 13H15.1673" stroke="#049473" stroke-width="1.5" stroke-linecap="round" stroke-linejoin="round"/>
</svg>
