<svg width="72" height="72" viewBox="0 0 72 72" fill="none" xmlns="http://www.w3.org/2000/svg">
<path d="M27.002 44.25L45.002 26.25M58.502 37.5C58.502 35.5109 59.2921 33.6032 60.6987 32.1967C62.1052 30.7902 64.0128 30 66.002 30V27C66.002 15 63.002 12 51.002 12H21.002C9.00195 12 6.00195 15 6.00195 27V28.5C7.99108 28.5 9.89873 29.2902 11.3053 30.6967C12.7118 32.1032 13.502 34.0109 13.502 36C13.502 37.9891 12.7118 39.8968 11.3053 41.3033C9.89873 42.7098 7.99108 43.5 6.00195 43.5V45C6.00195 57 9.00195 60 21.002 60H51.002C63.002 60 66.002 57 66.002 45C64.0128 45 62.1052 44.2098 60.6987 42.8033C59.2921 41.3968 58.502 39.4891 58.502 37.5Z" stroke="#049473" stroke-width="3" stroke-linecap="round" stroke-linejoin="round"/>
<path d="M44.9853 44.25H45.0123M26.9854 27.75H27.0094" stroke="#049473" stroke-width="4" stroke-linecap="round" stroke-linejoin="round"/>
</svg>
