<svg width="25" height="24" viewBox="0 0 25 24" fill="none" xmlns="http://www.w3.org/2000/svg">
<g clip-path="url(#clip0_153_307)">
<path d="M12.7285 9.90552V14.3669H19.0635C18.7854 15.8017 17.9506 17.0166 16.6986 17.8335L20.5188 20.7344C22.7447 18.7237 24.0288 15.7704 24.0288 12.262C24.0288 11.4451 23.9539 10.6596 23.8148 9.90564L12.7285 9.90552Z" fill="#4285F4"/>
<path d="M6.13022 14.1927L5.26861 14.8382L2.21875 17.1632C4.15564 20.9228 8.12545 23.5201 12.7269 23.5201C15.905 23.5201 18.5695 22.4938 20.5172 20.7344L16.6969 17.8334C15.6482 18.5246 14.3106 18.9436 12.7269 18.9436C9.66638 18.9436 7.0661 16.9224 6.13504 14.1994L6.13022 14.1927Z" fill="#34A853"/>
<path d="M2.21967 6.83691C1.41713 8.38682 0.957031 10.1358 0.957031 11.9999C0.957031 13.8641 1.41713 15.613 2.21967 17.163C2.21967 17.1734 6.13633 14.1887 6.13633 14.1887C5.9009 13.4975 5.76175 12.7644 5.76175 11.9998C5.76175 11.2352 5.9009 10.5021 6.13633 9.81095L2.21967 6.83691Z" fill="#FBBC05"/>
<path d="M12.7271 5.06706C14.4607 5.06706 16.0016 5.65352 17.2323 6.7846L20.6031 3.48571C18.5592 1.62159 15.9054 0.47998 12.7271 0.47998C8.12569 0.47998 4.15564 3.06675 2.21875 6.83697L6.13529 9.81124C7.06623 7.08829 9.66662 5.06706 12.7271 5.06706Z" fill="#EA4335"/>
</g>
<defs>
<clipPath id="clip0_153_307">
<rect width="24" height="24" fill="white" transform="translate(0.5)"/>
</clipPath>
</defs>
</svg>
