<svg width="44" height="47" viewBox="0 0 44 47" fill="none" xmlns="http://www.w3.org/2000/svg">
<g clip-path="url(#clip0_803_2885)">
<path opacity="0.64" d="M38.86 10.5601C39.86 12.9501 40.41 15.5801 40.41 18.3301C40.41 29.4901 31.36 38.5401 20.2 38.5401C10.03 38.5401 1.65 31.0301 0.23 21.2601C0.08 22.3101 0 23.3701 0 24.4601C0 36.5601 9.81 46.3801 21.92 46.3801C34.03 46.3801 43.84 36.5701 43.84 24.4601C43.83 19.1901 41.97 14.3501 38.86 10.5601Z" fill="#049473"/>
<path opacity="0.64" d="M41.1199 35.04C40.5599 35.72 39.6099 36.74 38.1499 37.56C38.1499 37.56 36.3299 38.58 34.0199 38.85C30.2599 39.28 17.9699 34.99 14.6599 23.89C12.1699 15.49 15.5999 5.9 23.3299 0C22.2699 0.05 21.2099 0.18 20.1399 0.39C8.26992 2.75 0.559918 14.29 2.90992 26.16C5.26992 38.03 16.7999 45.75 28.6799 43.39C31.9999 42.73 34.7899 41.2 34.7899 41.2C38.2199 39.21 40.1799 36.53 41.1199 35.04Z" fill="#049473"/>
<path opacity="0.64" d="M41.22 34.9702C40.64 35.4302 39.68 36.0802 38.35 36.4902C38.35 36.4902 36.68 37.0002 34.75 36.8102C31.6 36.4902 22.33 30.7902 21.62 21.1302C21.09 13.8402 25.6 6.62018 32.96 3.19018C32.09 3.05018 31.2 2.96018 30.29 2.94018C20.18 2.74018 11.82 10.7802 11.62 20.8902C11.43 31.0002 19.46 39.3602 29.58 39.5602C32.4 39.6202 34.96 38.8702 34.96 38.8702C38.12 37.8602 40.19 36.0202 41.22 34.9702Z" fill="#049473"/>
<path opacity="0.64" d="M39.7699 35.5C39.3099 35.72 38.5399 36.01 37.5699 36.08C37.5699 36.08 36.3499 36.16 35.0699 35.72C32.9799 35 27.5899 29.64 28.6599 22.96C29.4599 17.91 33.6899 13.73 39.2499 12.58C38.6799 12.34 38.0899 12.14 37.4699 11.98C30.6199 10.22 23.6499 14.35 21.8999 21.19C20.1399 28.04 24.2699 35.01 31.1099 36.76C33.0199 37.25 34.8799 37.15 34.8799 37.15C37.1899 36.97 38.8999 36.06 39.7699 35.5Z" fill="#049473"/>
</g>
<defs>
<clipPath id="clip0_803_2885">
<rect width="43.83" height="46.38" fill="white"/>
</clipPath>
</defs>
</svg>
