<svg width="44" height="47" viewBox="0 0 44 47" fill="none" xmlns="http://www.w3.org/2000/svg">
<g clip-path="url(#clip0_258_5989)">
<path opacity="0.64" d="M38.86 10.5605C39.86 12.9505 40.41 15.5805 40.41 18.3305C40.41 29.4905 31.36 38.5405 20.2 38.5405C10.03 38.5405 1.65 31.0305 0.23 21.2605C0.08 22.3105 0 23.3705 0 24.4605C0 36.5605 9.81 46.3805 21.92 46.3805C34.03 46.3805 43.84 36.5705 43.84 24.4605C43.83 19.1905 41.97 14.3505 38.86 10.5605Z" fill="#049473"/>
<path opacity="0.64" d="M41.1199 35.04C40.5599 35.72 39.6099 36.74 38.1499 37.56C38.1499 37.56 36.3299 38.58 34.0199 38.85C30.2599 39.28 17.9699 34.99 14.6599 23.89C12.1699 15.49 15.5999 5.9 23.3299 0C22.2699 0.05 21.2099 0.18 20.1399 0.39C8.26992 2.75 0.559918 14.29 2.90992 26.16C5.26992 38.03 16.7999 45.75 28.6799 43.39C31.9999 42.73 34.7899 41.2 34.7899 41.2C38.2199 39.21 40.1799 36.53 41.1199 35.04Z" fill="#049473"/>
<path opacity="0.64" d="M41.2205 34.9692C40.6405 35.4292 39.6805 36.0792 38.3505 36.4892C38.3505 36.4892 36.6805 36.9992 34.7505 36.8092C31.6005 36.4892 22.3305 30.7892 21.6205 21.1292C21.0905 13.8392 25.6005 6.6192 32.9605 3.1892C32.0905 3.0492 31.2005 2.9592 30.2905 2.9392C20.1805 2.7392 11.8205 10.7792 11.6205 20.8892C11.4305 30.9992 19.4605 39.3592 29.5805 39.5592C32.4005 39.6192 34.9605 38.8692 34.9605 38.8692C38.1205 37.8592 40.1905 36.0192 41.2205 34.9692Z" fill="#049473"/>
<path opacity="0.64" d="M39.7699 35.5C39.3099 35.72 38.5399 36.01 37.5699 36.08C37.5699 36.08 36.3499 36.16 35.0699 35.72C32.9799 35 27.5899 29.64 28.6599 22.96C29.4599 17.91 33.6899 13.73 39.2499 12.58C38.6799 12.34 38.0899 12.14 37.4699 11.98C30.6199 10.22 23.6499 14.35 21.8999 21.19C20.1399 28.04 24.2699 35.01 31.1099 36.76C33.0199 37.25 34.8799 37.15 34.8799 37.15C37.1899 36.97 38.8999 36.06 39.7699 35.5Z" fill="#049473"/>
</g>
<defs>
<clipPath id="clip0_258_5989">
<rect width="43.83" height="46.38" fill="white"/>
</clipPath>
</defs>
</svg>
