<svg width="20" height="20" viewBox="0 0 20 20" fill="none" xmlns="http://www.w3.org/2000/svg">
<path d="M10.0007 9.99935C12.3018 9.99935 14.1673 8.13387 14.1673 5.83268C14.1673 3.5315 12.3018 1.66602 10.0007 1.66602C7.69946 1.66602 5.83398 3.5315 5.83398 5.83268C5.83398 8.13387 7.69946 9.99935 10.0007 9.99935Z" stroke="#6E6E73" stroke-width="1.5" stroke-linecap="round" stroke-linejoin="round"/>
<path d="M16.0085 13.1162L13.0585 16.0662C12.9418 16.1829 12.8335 16.3995 12.8085 16.5579L12.6502 17.6828C12.5919 18.0912 12.8752 18.3745 13.2835 18.3162L14.4085 18.1579C14.5668 18.1329 14.7919 18.0245 14.9002 17.9079L17.8502 14.9579C18.3585 14.4495 18.6002 13.8579 17.8502 13.1079C17.1085 12.3662 16.5169 12.6079 16.0085 13.1162Z" stroke="#6E6E73" stroke-width="1.5" stroke-miterlimit="10" stroke-linecap="round" stroke-linejoin="round"/>
<path d="M15.584 13.541C15.834 14.441 16.534 15.141 17.434 15.391" stroke="#6E6E73" stroke-width="1.5" stroke-miterlimit="10" stroke-linecap="round" stroke-linejoin="round"/>
<path d="M2.8418 18.3333C2.8418 15.1083 6.05015 12.5 10.0002 12.5C10.8668 12.5 11.7001 12.625 12.4751 12.8583" stroke="#6E6E73" stroke-width="1.5" stroke-linecap="round" stroke-linejoin="round"/>
</svg>
