<svg width="505" height="105" viewBox="0 0 505 105" fill="none" xmlns="http://www.w3.org/2000/svg">
<g clip-path="url(#clip0_993_4162)">
<path d="M32.2895 37.4062H0.759277V103.469H32.2895C45.5739 103.469 56.3237 97.1876 56.3237 89.4488V51.4262C56.3417 43.6769 45.5739 37.4062 32.2895 37.4062ZM38.5812 88.7253C38.5812 91.7243 34.4107 94.1676 29.2515 94.1676H19.4725V46.8438H29.2515C34.3927 46.8438 38.5812 49.2765 38.5812 52.286V88.7253Z" fill="#049473"/>
<path d="M117.427 46.2462V37.333H68.4058V46.2462V65.2051V74.1288V94.4823V103.396H117.427V94.4823H83.6855V74.1288H111.782V65.2051H83.6855V46.2462H117.427Z" fill="#049473"/>
<path d="M141.999 37.2173L124.059 103.28H139.536L142.916 90.8433H165.853L169.233 103.28H184.71L166.77 37.2173H141.999ZM145.342 81.9406L154.384 48.6262L163.426 81.9406H145.342Z" fill="#049473"/>
<path d="M209.519 94.6185V37.4692H194.239V94.6185V103.532H243.26V94.6185H209.519Z" fill="#049473"/>
<path d="M298.465 46.1412V37.228H264.724H249.444V46.1412V103.291H264.724V75.6177H292.766V66.694H264.724V46.1412H298.465Z" fill="#049473"/>
<path d="M319.929 94.6185V37.4692H304.649V94.6185V103.532H353.67V94.6185H319.929Z" fill="#049473"/>
<path d="M389.961 36.9448H380.38C367.797 36.9448 357.604 42.8904 357.604 50.2307V90.77C357.604 98.1103 367.797 104.056 380.38 104.056H389.961C402.544 104.056 412.737 98.1103 412.737 90.77V50.2307C412.737 42.8904 402.544 36.9448 389.961 36.9448ZM394.527 89.7738C394.527 92.7938 390.339 95.2371 385.162 95.2371C379.984 95.2371 375.796 92.7938 375.796 89.7738V51.2374C375.796 48.2174 379.984 45.7741 385.162 45.7741C390.339 45.7741 394.527 48.2174 394.527 51.2374V89.7738Z" fill="#049473"/>
<path d="M455.917 103.196L462.496 66.6836L469.076 103.196H492.211L504.093 37.312H488.724L479.628 87.7397L470.55 37.312H454.443L445.149 88.8408L435.874 37.312H420.504L432.368 103.196H455.917Z" fill="#049473"/>
</g>
<defs>
<clipPath id="clip0_993_4162">
<rect width="503.333" height="103.463" fill="white" transform="translate(0.759277 0.592773)"/>
</clipPath>
</defs>
</svg>
