<svg width="24" height="24" viewBox="0 0 24 24" fill="none" xmlns="http://www.w3.org/2000/svg">
<path fill-rule="evenodd" clip-rule="evenodd" d="M18.4832 15.0001C19.4722 13.5201 20 11.78 20 10V8.23607C20 7.8573 20.214 7.51103 20.5528 7.34164L21.4472 6.89443C21.9412 6.64744 22.1414 6.04676 21.8944 5.55279C21.6474 5.05881 21.0468 4.85858 20.5528 5.10557L19.6584 5.55279C18.642 6.06096 18 7.09975 18 8.23607V9L12 9V2C12 1.44772 11.5523 1 11 1C9.21997 1 7.47991 1.52784 5.99987 2.51677C4.51983 3.50571 3.36628 4.91131 2.68509 6.55585C2.0039 8.20038 1.82567 10.01 2.17294 11.7558C2.5202 13.5016 3.37737 15.1053 4.63604 16.364C4.88279 16.6107 5.1428 16.842 5.41454 17.0571C4.03796 17.3294 3 18.5435 3 20C3 21.6569 4.34315 23 6 23C7.65686 23 9 21.6569 9 20C9 19.5353 8.89435 19.0953 8.70575 18.7027C8.88355 18.7495 9.06311 18.791 9.24419 18.8271C10.5913 19.095 11.9763 19.0501 13.2943 18.7027C13.1057 19.0953 13 19.5353 13 20C13 21.6569 14.3431 23 16 23C17.6569 23 19 21.6569 19 20C19 18.5435 17.962 17.3294 16.5855 17.0571C17.3175 16.4777 17.9589 15.7848 18.4832 15.0001ZM16.7835 13.8644C17.3611 12.9999 17.7352 12.0206 17.8834 11L4.11657 11C4.1339 11.1193 4.15436 11.2383 4.17796 11.357C4.44635 12.7063 5.10881 13.9456 6.08159 14.9184C7.05436 15.8912 8.29374 16.5537 9.64302 16.822C10.9923 17.0904 12.3908 16.9527 13.6618 16.4262C14.9328 15.8998 16.0192 15.0082 16.7835 13.8644ZM10 3.11656V9L4.11657 9C4.19905 8.43222 4.35189 7.87387 4.57378 7.33817C5.10024 6.06718 5.99177 4.98085 7.13563 4.21655C8.00011 3.63892 8.97937 3.26484 10 3.11656ZM6 21.0076C5.4435 21.0076 4.99236 20.5565 4.99236 20C4.99236 19.4435 5.4435 18.9924 6 18.9924C6.55651 18.9924 7.00765 19.4435 7.00765 20C7.00765 20.5565 6.55651 21.0076 6 21.0076ZM14.9924 20C14.9924 20.5565 15.4435 21.0076 16 21.0076C16.5565 21.0076 17.0076 20.5565 17.0076 20C17.0076 19.4435 16.5565 18.9924 16 18.9924C15.4435 18.9924 14.9924 19.4435 14.9924 20Z" fill="#049473"/>
</svg>
