<svg width="24" height="24" viewBox="0 0 24 24" fill="none" xmlns="http://www.w3.org/2000/svg">
<path fill-rule="evenodd" clip-rule="evenodd" d="M21.5262 17.4999C18.4886 22.7611 11.7611 24.5637 6.49988 21.5262C1.23866 18.4886 -0.563962 11.7611 2.4736 6.49988C5.51117 1.23866 12.2387 -0.563962 17.4999 2.4736C22.7611 5.51117 24.5637 12.2387 21.5262 17.4999ZM5.84376 7.87995C5.25273 7.64272 4.74285 7.45257 4.32914 7.30543C5.59147 5.24057 7.56261 3.85898 9.74642 3.29362C9.7717 3.62621 9.82844 4.00289 9.93716 4.40861C10.3269 5.86297 11.3578 7.58777 13.75 8.96886C14.0666 9.15165 14.3765 9.31079 14.6792 9.44842C14.4756 10.219 14.1793 11.0351 13.7613 11.8848C13.3565 11.6365 12.9359 11.3857 12.4999 11.1339C9.85443 9.60655 7.5207 8.55305 5.84376 7.87995ZM12.7587 13.6161C12.3555 13.3682 11.9357 13.1176 11.4999 12.866C8.94931 11.3934 6.70291 10.3799 5.09876 9.73602C4.44203 9.47241 3.89353 9.27099 3.47658 9.12556C2.88864 10.8629 2.86211 12.7007 3.33333 14.4015C3.634 14.2571 3.98858 14.1179 4.39429 14.0092C5.84865 13.6195 7.85786 13.65 10.25 15.0311C10.5666 15.2139 10.8594 15.4027 11.1299 15.5961C11.6875 15.0424 12.2383 14.3885 12.7587 13.6161ZM12.6203 16.9341C13.4036 17.8315 13.839 18.756 14.0628 19.5913C14.1715 19.997 14.2282 20.3736 14.2535 20.7061C15.962 20.2638 17.5402 19.3219 18.7508 17.9441C18.4164 17.6557 17.9678 17.2815 17.4112 16.8446C16.6284 16.2301 15.633 15.4925 14.4425 14.6962C13.8638 15.5605 13.2482 16.3006 12.6203 16.9341ZM9.52731 16.9296C9.43782 16.8737 9.34541 16.8182 9.24998 16.7631C7.31198 15.6442 5.84811 15.6902 4.91193 15.9411C4.57994 16.03 4.30135 16.1484 4.08044 16.2639C4.53352 17.1073 5.12455 17.8846 5.84353 18.5583C5.87608 18.5513 5.90971 18.5439 5.94438 18.5361C6.44526 18.4223 7.15864 18.2112 7.97652 17.8245C8.46254 17.5947 8.98706 17.3022 9.52731 16.9296ZM7.92666 20.018C8.2134 19.909 8.51636 19.7815 8.83139 19.6326C9.54838 19.2936 10.3255 18.8442 11.1145 18.2503C11.6988 18.9202 11.9873 19.5728 12.1309 20.109C12.2199 20.4409 12.2566 20.7413 12.2671 20.9903C10.803 21.0352 9.31165 20.7231 7.92666 20.018ZM18.6461 15.2714C17.8061 14.612 16.7363 13.8204 15.4557 12.968C15.9672 11.9634 16.3317 10.9922 16.5832 10.0701C17.752 10.2998 18.7703 10.2145 19.6056 9.99072C20.0113 9.88202 20.3659 9.74284 20.6665 9.59846C21.2687 11.7723 21.0578 14.1701 19.9008 16.2957C19.5665 16.011 19.147 15.6645 18.6461 15.2714ZM16.9701 8.10789C17.8425 8.27902 18.5518 8.20254 19.088 8.05887C19.42 7.96992 19.6985 7.85154 19.9194 7.73607C19.2263 6.44565 18.2102 5.3101 16.907 4.46319C16.9559 4.76614 16.9971 5.09234 17.0256 5.43977C17.0905 6.23015 17.0899 7.1278 16.9701 8.10789ZM15.0327 7.39372C15.0853 6.73963 15.0763 6.13922 15.0323 5.60348C14.9583 4.70183 14.7844 3.97847 14.6325 3.4878C14.6219 3.45374 14.6115 3.42082 14.6012 3.38905C13.6583 3.10331 12.6897 2.9801 11.7328 3.00943C11.7433 3.2585 11.78 3.55897 11.869 3.89097C12.1199 4.82716 12.812 6.11791 14.75 7.23681C14.8454 7.2919 14.9396 7.34416 15.0327 7.39372Z" fill="#049473"/>
</svg>
