<svg width="24" height="24" viewBox="0 0 24 24" fill="none" xmlns="http://www.w3.org/2000/svg">
<path fill-rule="evenodd" clip-rule="evenodd" d="M6.23678 1C5.10046 1 4.06167 1.64201 3.55349 2.65836L1.14876 7.46782C0.648677 8.46799 0.746367 9.66329 1.40222 10.569L9.57088 21.8495C10.7686 23.5035 13.2328 23.5035 14.4305 21.8495L22.5992 10.569C23.2551 9.66329 23.3527 8.468 22.8527 7.46782L20.4479 2.65836C19.9397 1.64201 18.901 1 17.7646 1H6.23678ZM5.34235 3.55279C5.51174 3.214 5.858 3 6.23678 3H8.67498L7.24641 8H3.11874L5.34235 3.55279ZM9.32644 8L10.755 3H13.2464L14.675 8H9.32644ZM14.6467 10H9.35467L12.0007 18.5996L14.6467 10ZM13.9297 19.1312L16.7393 10H20.5419L13.9297 19.1312ZM16.755 8L15.3264 3H17.7646C18.1434 3 18.4897 3.214 18.6591 3.55279L20.8827 8H16.755ZM3.4595 10H7.26213L10.0717 19.1312L3.4595 10Z" fill="#049473"/>
</svg>
