<svg width="24" height="24" viewBox="0 0 24 24" fill="none" xmlns="http://www.w3.org/2000/svg">
<path fill-rule="evenodd" clip-rule="evenodd" d="M19.671 1.25688C19.2805 0.866358 18.6474 0.866358 18.2568 1.25688C17.8663 1.64741 17.8663 2.28057 18.2568 2.6711L19.0982 3.51248L10.0124 12.5983L8.4141 11C7.63305 10.2189 6.36672 10.2189 5.58567 11L3.02906 13.5566C1.76005 14.8256 0.86719 16.5431 0.875052 18.455C0.877683 19.095 0.912372 19.7971 1.02019 20.4226C1.11782 20.9891 1.3097 21.724 1.79279 22.2071C2.27587 22.6902 3.01081 22.882 3.57729 22.9797C4.20279 23.0875 4.9049 23.1222 5.54482 23.1248C7.45672 23.1327 9.17426 22.2398 10.4433 20.9708L12.9999 18.4142C13.7809 17.6331 13.7809 16.3668 12.9999 15.5858L11.4267 14.0125L20.5125 4.92672L21.3212 5.73548C21.7117 6.12601 22.3449 6.12601 22.7354 5.73548C23.126 5.34496 23.126 4.71179 22.7354 4.32127L19.671 1.25688ZM7.11891 15.4918L8.5982 14.0125L6.99988 12.4142L4.44327 14.9708C3.46439 15.9497 2.86982 17.1797 2.87503 18.4468C2.87746 19.0362 2.91025 19.6136 2.99112 20.0829C3.03067 20.3123 3.07108 20.5948 3.20758 20.7923C3.40502 20.9288 3.68754 20.9692 3.917 21.0087C4.38621 21.0896 4.96368 21.1224 5.55304 21.1248C6.82011 21.13 8.05017 20.5355 9.02905 19.5566L11.5857 17L10.0124 15.4267L8.53315 16.906C8.14263 17.2966 7.50945 17.2965 7.11892 16.906C6.7284 16.5155 6.72839 15.8823 7.11891 15.4918Z" fill="#049473"/>
</svg>
