<svg width="24" height="24" viewBox="0 0 24 24" fill="none" xmlns="http://www.w3.org/2000/svg">
<path d="M6.99988 6C6.99988 5.44772 7.44759 5 7.99988 5C8.55216 5 8.99988 5.44772 8.99988 6V7H9.99988C10.5522 7 10.9999 7.44771 10.9999 8C10.9999 8.55228 10.5522 9 9.99988 9H8.99988V10C8.99988 10.5523 8.55216 11 7.99988 11C7.44759 11 6.99988 10.5523 6.99988 10V9H5.99988C5.44759 9 4.99988 8.55229 4.99988 8C4.99988 7.44771 5.44759 7 5.99988 7H6.99988V6Z" fill="#049473"/>
<path d="M16.9999 6C16.9999 6.55229 16.5522 7 15.9999 7C15.4476 7 14.9999 6.55229 14.9999 6C14.9999 5.44772 15.4476 5 15.9999 5C16.5522 5 16.9999 5.44772 16.9999 6Z" fill="#049473"/>
<path d="M15.9999 11C16.5522 11 16.9999 10.5523 16.9999 10C16.9999 9.44771 16.5522 9 15.9999 9C15.4476 9 14.9999 9.44771 14.9999 10C14.9999 10.5523 15.4476 11 15.9999 11Z" fill="#049473"/>
<path d="M18.9999 8C18.9999 8.55229 18.5522 9 17.9999 9C17.4476 9 16.9999 8.55229 16.9999 8C16.9999 7.44771 17.4476 7 17.9999 7C18.5522 7 18.9999 7.44771 18.9999 8Z" fill="#049473"/>
<path d="M13.9999 9C14.5522 9 14.9999 8.55229 14.9999 8C14.9999 7.44771 14.5522 7 13.9999 7C13.4476 7 12.9999 7.44771 12.9999 8C12.9999 8.55229 13.4476 9 13.9999 9Z" fill="#049473"/>
<path fill-rule="evenodd" clip-rule="evenodd" d="M2.17843 3.46413C2.76667 1.72817 4.47811 1 5.99984 1H17.9998C19.5216 1 21.233 1.72817 21.8212 3.46411C22.5986 5.75813 22.9379 9.03747 23.0761 12.1306C23.2156 15.2519 23.1535 18.2926 23.0857 20.165C23.0273 21.7748 21.6986 23 20.1209 23H18.5614C17.1848 23 15.9848 22.0631 15.651 20.7276L14.4084 15.7575C14.2971 15.3123 13.8972 15 13.4383 15H10.5614C10.1025 15 9.70254 15.3123 9.59125 15.7575L8.34871 20.7276C8.01484 22.0631 6.81489 23 5.43829 23H3.87874C2.30106 23 0.972345 21.7748 0.914004 20.165C0.846141 18.2926 0.784116 15.2519 0.923567 12.1306C1.06175 9.03748 1.40109 5.75815 2.17843 3.46413ZM5.99984 3C5.00351 3 4.29253 3.45709 4.07264 4.10599C3.39305 6.11152 3.05893 9.14533 2.92157 12.2198C2.78548 15.2661 2.84582 18.2475 2.91269 20.0926C2.93085 20.5937 3.34417 21 3.87874 21H5.43829C5.89715 21 6.29714 20.6877 6.40843 20.2425L7.65096 15.2724C7.98484 13.9369 9.18479 13 10.5614 13H13.4383C14.8149 13 16.0148 13.9369 16.3487 15.2724L17.5912 20.2425C17.7025 20.6877 18.1025 21 18.5614 21H20.1209C20.6555 21 21.0688 20.5937 21.087 20.0926C21.1539 18.2475 21.2142 15.2661 21.0781 12.2198C20.9408 9.14532 20.6066 6.11151 19.927 4.10598C19.7072 3.45708 18.9962 3 17.9998 3H5.99984Z" fill="#049473"/>
</svg>
