<svg width="38" height="38" viewBox="0 0 38 38" fill="none" xmlns="http://www.w3.org/2000/svg">
<path d="M14.2513 23.3543L23.7513 13.8543M30.8763 19.7918C30.8763 18.742 31.2934 17.7352 32.0357 16.9929C32.778 16.2505 33.7848 15.8335 34.8347 15.8335V14.2502C34.8347 7.91683 33.2513 6.3335 26.918 6.3335H11.0846C4.7513 6.3335 3.16797 7.91683 3.16797 14.2502V15.0418C4.21778 15.0418 5.2246 15.4589 5.96694 16.2012C6.70927 16.9435 7.1263 17.9503 7.1263 19.0002C7.1263 20.05 6.70927 21.0568 5.96694 21.7991C5.2246 22.5415 4.21778 22.9585 3.16797 22.9585V23.7502C3.16797 30.0835 4.7513 31.6668 11.0846 31.6668H26.918C33.2513 31.6668 34.8347 30.0835 34.8347 23.7502C33.7848 23.7502 32.778 23.3331 32.0357 22.5908C31.2934 21.8485 30.8763 20.8416 30.8763 19.7918Z" stroke="#049473" stroke-width="3" stroke-linecap="round" stroke-linejoin="round"/>
<path d="M23.7422 23.3543H23.7564M14.2422 14.646H14.2549" stroke="#049473" stroke-width="4" stroke-linecap="round" stroke-linejoin="round"/>
</svg>
