<svg width="38" height="38" viewBox="0 0 38 38" fill="none" xmlns="http://www.w3.org/2000/svg">
<path d="M21.7388 5.55743L24.5254 11.1308C24.9054 11.9066 25.9188 12.6508 26.7738 12.7933L31.8246 13.6324C35.0546 14.1708 35.8146 16.5141 33.4871 18.8258L29.5604 22.7524C28.8954 23.4174 28.5313 24.6999 28.7371 25.6183L29.8613 30.4791C30.7479 34.3266 28.7054 35.8149 25.3013 33.8041L20.5671 31.0016C19.7121 30.4949 18.3029 30.4949 17.4321 31.0016L12.6979 33.8041C9.30961 35.8149 7.25128 34.3108 8.13795 30.4791L9.26211 25.6183C9.46795 24.6999 9.10378 23.4174 8.43878 22.7524L4.51211 18.8258C2.20045 16.5141 2.94461 14.1708 6.17461 13.6324L11.2254 12.7933C12.0646 12.6508 13.0779 11.9066 13.4579 11.1308L16.2446 5.55743C17.7646 2.53326 20.2346 2.53326 21.7388 5.55743Z" stroke="#049473" stroke-width="3" stroke-linecap="round" stroke-linejoin="round"/>
</svg>
