<svg width="39" height="38" viewBox="0 0 39 38" fill="none" xmlns="http://www.w3.org/2000/svg">
<path d="M21.0833 23.75V11.0833M21.0833 23.75L29.798 28.7296C30.0388 28.8671 30.3114 28.939 30.5887 28.9381C30.866 28.9371 31.1381 28.8634 31.3779 28.7243C31.6178 28.5851 31.8168 28.3854 31.9553 28.1452C32.0937 27.9049 32.1666 27.6325 32.1667 27.3553V7.47809C32.1666 7.20082 32.0937 6.92843 31.9553 6.68818C31.8168 6.44793 31.6178 6.24824 31.3779 6.10909C31.1381 5.96994 30.866 5.89621 30.5887 5.89527C30.3114 5.89434 30.0388 5.96623 29.798 6.10375L21.0833 11.0833M21.0833 23.75H16.3333M21.0833 11.0833H11.5833C9.90363 11.0833 8.29272 11.7506 7.10499 12.9383C5.91726 14.1261 5.25 15.737 5.25 17.4167C5.25 19.0964 5.91726 20.7073 7.10499 21.895C8.29272 23.0827 9.90363 23.75 11.5833 23.75M16.3333 23.75V30.875C16.3333 31.5049 16.0831 32.109 15.6377 32.5544C15.1923 32.9998 14.5882 33.25 13.9583 33.25C13.3284 33.25 12.7244 32.9998 12.279 32.5544C11.8336 32.109 11.5833 31.5049 11.5833 30.875V23.75M16.3333 23.75H11.5833" stroke="#049473" stroke-width="3" stroke-linecap="round" stroke-linejoin="round"/>
</svg>
