<svg width="28" height="28" viewBox="0 0 28 28" fill="none" xmlns="http://www.w3.org/2000/svg">
<g opacity="0.7">
<path fill-rule="evenodd" clip-rule="evenodd" d="M23.0793 4.57125C23.486 4.47489 23.7695 4.38014 24.0017 4.28063C24.3272 4.14117 24.5971 3.9741 25.0235 3.69274C25.3818 3.45627 25.841 3.43568 26.219 3.63912C26.597 3.84257 26.8328 4.23717 26.8328 4.66646C26.8328 5.92755 26.6757 6.96114 26.3118 7.87076C26.0058 8.63587 25.5757 9.25731 25.0614 9.82292C24.8441 13.7466 23.7084 16.8278 21.972 19.1623C20.1723 21.5818 17.7778 23.1313 15.2537 23.9989C12.737 24.864 10.0778 25.0574 7.69559 24.7645C5.32896 24.4735 3.14132 23.69 1.6165 22.504C1.19892 22.1792 1.05214 21.6141 1.25887 21.1272C1.4656 20.6402 1.9741 20.3533 2.49779 20.4281C3.99808 20.6425 5.44229 20.3014 6.62983 19.8137C6.39606 19.6865 6.17564 19.5488 5.97077 19.407C4.88865 18.6578 4.01557 17.6409 3.6226 16.8549C3.45998 16.5297 3.45831 16.1473 3.61806 15.8206C3.70048 15.6521 3.82099 15.5084 3.96731 15.399C2.38734 14.095 1.74943 12.2914 1.74943 11.0831C1.74943 10.7239 1.91495 10.3846 2.19813 10.1635C2.31719 10.0706 2.45148 10.0029 2.59304 9.96208C2.47481 9.61588 2.38306 9.26611 2.31312 8.92748C2.00307 7.42614 2.03058 5.7316 2.36759 4.38351C2.48292 3.92219 2.86669 3.57703 3.33761 3.51107C3.80853 3.44511 4.27235 3.67157 4.50998 4.08345C5.76707 6.26242 8.08579 7.5943 10.2438 8.38325C11.2584 8.75418 12.198 8.99055 12.9023 9.13587C13.0543 7.71185 13.452 6.53749 14.0622 5.60475C14.8673 4.37416 15.9902 3.64608 17.1962 3.32143C19.2759 2.76155 21.5837 3.39942 23.0793 4.57125ZM12.5393 11.4431C11.74 11.2826 10.6414 11.013 9.44258 10.5747C7.85916 9.99583 6.02047 9.09316 4.48028 7.69495C4.50784 7.95225 4.54698 8.20737 4.59824 8.45556C4.85636 9.70545 5.336 10.4054 5.77118 10.623C6.30343 10.8892 6.55009 11.5132 6.34362 12.0713C6.06409 12.8269 5.32888 12.889 4.66086 12.722C5.19814 13.5275 6.16384 14.3306 7.77456 14.5991C8.33011 14.6917 8.7402 15.1679 8.74928 15.7311C8.75836 16.2942 8.36384 16.7834 7.81156 16.8939L6.79603 17.097C6.95138 17.232 7.1196 17.3644 7.29892 17.4886C8.11199 18.0515 8.92836 18.2942 9.63314 18.118C10.161 17.9861 10.71 18.2365 10.9563 18.7216C11.2027 19.2068 11.081 19.7978 10.663 20.1461C9.91174 20.7714 9.0344 21.2731 8.1551 21.6896C7.74232 21.8852 7.281 22.0781 6.77998 22.248C7.16532 22.3302 7.56627 22.3977 7.98035 22.4486C10.046 22.7026 12.3452 22.5314 14.4952 21.7923C16.6377 21.0559 18.6182 19.7616 20.0998 17.7697C21.5793 15.7805 22.6118 13.0278 22.7502 9.29002C22.7611 8.99574 22.8829 8.71647 23.0911 8.50824C23.6157 7.98365 24.0492 7.38236 24.2625 6.66665C23.8893 6.78299 23.4691 6.8837 22.9685 6.97939C22.5888 7.05198 22.1978 6.93178 21.9245 6.65844C21.0325 5.76649 19.2685 5.17994 17.8027 5.57455C17.1128 5.76027 16.4857 6.16233 16.0148 6.88219C15.5339 7.61717 15.1661 8.76215 15.1661 10.4998C15.1661 10.83 15.0262 11.1447 14.7812 11.3659C14.2002 11.8903 13.2224 11.5803 12.5393 11.4431Z" fill="white"/>
<path fill-rule="evenodd" clip-rule="evenodd" d="M23.1891 4.02825C23.4535 3.95746 23.6463 3.8891 23.8049 3.82118C24.0857 3.70084 24.3233 3.55588 24.7481 3.27556C25.2599 2.93776 25.9159 2.90834 26.456 3.19897C26.996 3.4896 27.3328 4.05333 27.3328 4.6666C27.3328 5.96808 27.1709 7.06963 26.7761 8.0566C26.4677 8.82744 26.0445 9.46023 25.5503 10.026C25.3046 13.9511 24.1496 17.0726 22.3732 19.4608C20.5054 21.972 18.0221 23.5762 15.4163 24.4719C12.8209 25.364 10.0847 25.5621 7.63461 25.2609C5.20688 24.9624 2.92541 24.1556 1.30956 22.8988C0.713024 22.4348 0.503331 21.6275 0.798661 20.9319C1.09399 20.2363 1.82042 19.8264 2.56855 19.9333C3.58607 20.0787 4.58616 19.9479 5.49636 19.6828C4.44327 18.909 3.58734 17.9025 3.17542 17.0787C2.94311 16.6141 2.94072 16.0677 3.16894 15.6011C3.19647 15.5448 3.22697 15.4904 3.26023 15.4382C1.84387 14.076 1.24946 12.3295 1.24946 11.0833C1.24946 10.57 1.48592 10.0854 1.89046 9.76958C1.92204 9.74492 1.95437 9.72151 1.98737 9.69936C1.92302 9.47299 1.86882 9.24823 1.82349 9.02875C1.4993 7.45898 1.52611 5.68822 1.88256 4.26238C2.04731 3.60336 2.59555 3.11026 3.26829 3.01604C3.94103 2.92182 4.60364 3.24532 4.94311 3.83373C6.11399 5.86326 8.30151 7.14092 10.4155 7.91379C11.1676 8.18877 11.8784 8.38798 12.4778 8.52987C12.6735 7.28324 13.0657 6.2148 13.6438 5.33115C14.5206 3.99105 15.7498 3.19315 17.0662 2.83876C19.2251 2.25758 21.5845 2.8675 23.1891 4.02825ZM22.771 4.96497C21.3838 3.87812 19.2359 3.29027 17.3262 3.80438C16.2307 4.09928 15.2141 4.75755 14.4806 5.87862C13.9221 6.73242 13.5449 7.82724 13.3995 9.18907L13.3411 9.73706L12.8013 9.62569C12.0791 9.47667 11.1149 9.23423 10.0721 8.85299C7.87014 8.04795 5.42023 6.66185 4.07692 4.33345C3.94113 4.09809 3.67609 3.96869 3.40699 4.00637C3.1379 4.04406 2.9186 4.2413 2.8527 4.50491C2.53512 5.77526 2.5069 7.39357 2.80282 8.8265C2.8691 9.1474 2.95562 9.47672 3.06624 9.80063L3.23587 10.2974L2.7315 10.4427C2.65061 10.466 2.57393 10.5046 2.50586 10.5578C2.34405 10.6841 2.24946 10.878 2.24946 11.0833C2.24946 12.1451 2.82286 13.8062 4.28561 15.0135L4.77628 15.4184L4.26683 15.7995C4.18317 15.8621 4.11435 15.9441 4.06725 16.0404C3.97596 16.2271 3.97692 16.4456 4.06985 16.6315C4.41938 17.3306 5.23076 18.2867 6.25541 18.996C6.44685 19.1286 6.65206 19.2567 6.86882 19.3746L7.79217 19.8769L6.81983 20.2763C5.58158 20.7849 4.04432 21.1543 2.4271 20.9232C2.12784 20.8805 1.83727 21.0444 1.71914 21.3227C1.60101 21.6009 1.68489 21.9239 1.9235 22.1094C3.3573 23.2246 5.45111 23.9849 7.75665 24.2684C10.0711 24.5529 12.6531 24.3643 15.0912 23.5262C17.5336 22.6867 19.8394 21.1919 21.5708 18.864C23.2408 16.6188 24.3496 13.6352 24.5622 9.79541L24.572 9.61806L24.6915 9.48665C25.1749 8.9551 25.5683 8.3834 25.8476 7.6852C26.1805 6.85292 26.3328 5.88729 26.3328 4.6666C26.3328 4.42129 26.1981 4.1958 25.9821 4.07955C25.7661 3.96329 25.5037 3.97506 25.2989 4.11018C24.871 4.3926 24.5688 4.58177 24.1987 4.74036C23.9346 4.85353 23.6227 4.95647 23.1947 5.05791L22.9605 5.11341L22.771 4.96497ZM19.9423 6.11517C19.274 5.9255 18.5605 5.8885 17.9327 6.0575C17.3536 6.2134 16.8327 6.54552 16.4332 7.15607C16.0197 7.78816 15.6661 8.83016 15.6661 10.5C15.6661 10.9716 15.4663 11.4211 15.1162 11.7372C14.6756 12.1349 14.1168 12.1843 13.6625 12.1515C13.3212 12.1268 12.9582 12.0465 12.6739 11.9836C12.5881 11.9647 12.5095 11.9473 12.4409 11.9335C11.6232 11.7693 10.4992 11.4935 9.27093 11.0445C8.00903 10.5831 6.57433 9.91591 5.24299 8.95417C5.33688 9.24926 5.4431 9.48871 5.55155 9.67688C5.72967 9.98594 5.89564 10.1264 5.99482 10.176C6.75517 10.5561 7.10755 11.4476 6.8126 12.2449C6.6164 12.7753 6.23828 13.09 5.78932 13.2224C5.78862 13.2226 5.78792 13.2228 5.78722 13.223C6.27652 13.6204 6.94753 13.9545 7.8568 14.106C8.65043 14.2383 9.23628 14.9187 9.24925 15.7231C9.26152 16.484 8.75809 17.1504 8.03605 17.3539C8.60444 17.6534 9.10831 17.734 9.5119 17.6331C10.266 17.4446 11.0503 17.8023 11.4022 18.4954C11.7541 19.1885 11.5802 20.0328 10.9831 20.5304C10.2663 21.127 9.44953 21.6107 8.63568 22.0127C10.4739 22.1602 12.4646 21.9618 14.3327 21.3196C16.3934 20.6113 18.2852 19.3717 19.6986 17.4714C21.1092 15.5751 22.1153 12.9238 22.2506 9.27165C22.2662 8.85125 22.4402 8.45229 22.7376 8.15482C22.974 7.91848 23.1837 7.67207 23.3578 7.41167C23.2621 7.43165 23.1637 7.45128 23.0624 7.47063C22.52 7.57433 21.9614 7.40262 21.571 7.01213C21.1964 6.63757 20.6126 6.30541 19.9423 6.11517ZM20.2153 5.15317C21.0165 5.38055 21.7607 5.78763 22.2781 6.30502C22.4343 6.46122 22.6577 6.5299 22.8746 6.48842C23.3629 6.39508 23.7637 6.29854 24.1138 6.18943L25.0098 5.91016L24.7417 6.80958C24.4969 7.63122 24.0049 8.30172 23.4447 8.86193C23.3257 8.98092 23.2561 9.1405 23.2499 9.30866C23.1083 13.1321 22.0496 15.9863 20.501 18.0683C18.9513 20.1517 16.8821 21.5007 14.6577 22.2653C12.4292 23.0314 10.0529 23.2073 7.91936 22.945C7.49101 22.8923 7.0756 22.8224 6.6757 22.7371L4.89874 22.358L6.61946 21.7746C7.09999 21.6117 7.54341 21.4263 7.9411 21.2379C8.79894 20.8316 9.63575 20.3508 10.3431 19.762C10.5818 19.5629 10.6513 19.2253 10.5106 18.9482C10.3698 18.6709 10.0561 18.5278 9.75444 18.6032C8.85267 18.8287 7.88644 18.5035 7.01435 17.8998C6.81871 17.7643 6.63604 17.6205 6.46803 17.4745L5.69961 16.8065L7.71354 16.4037C8.02913 16.3406 8.25457 16.061 8.24938 15.7393C8.24419 15.4175 8.00985 15.1453 7.6924 15.0924C5.9401 14.8004 4.85586 13.9155 4.24493 12.9995L3.52703 11.9232L4.78218 12.237C5.07099 12.3092 5.32306 12.3173 5.5066 12.2632C5.66213 12.2173 5.79138 12.1233 5.87472 11.898C5.9927 11.5791 5.85175 11.2225 5.54761 11.0704C5.21161 10.9024 4.92017 10.584 4.68514 10.1762C4.44625 9.7617 4.24587 9.22148 4.1086 8.55683C4.05385 8.29168 4.01232 8.02054 3.98316 7.74835L3.84314 6.44135L4.81639 7.32488C6.29218 8.66463 8.06632 9.53932 9.6143 10.1053C10.7837 10.5328 11.8568 10.7963 12.6377 10.9531C12.7438 10.9744 12.8471 10.9971 12.9485 11.0195C13.217 11.0787 13.4729 11.1351 13.7346 11.1541C14.0853 11.1794 14.3058 11.1215 14.4462 10.9949C14.5862 10.8684 14.6661 10.6886 14.6661 10.5C14.6661 8.69441 15.0483 7.44645 15.5964 6.60859C16.1389 5.77942 16.8721 5.30741 17.6728 5.09188C18.5108 4.86626 19.4122 4.92523 20.2153 5.15317Z" fill="#09BC93"/>
</g>
</svg>
