<svg width="24" height="24" viewBox="0 0 24 24" fill="none" xmlns="http://www.w3.org/2000/svg">
<path fill-rule="evenodd" clip-rule="evenodd" d="M3.04621 3.06513C2.96217 1.89204 3.91095 1 4.99937 1H18.9994C20.0878 1 21.0366 1.89204 20.9525 3.06513C20.8466 4.5436 20.4929 7.44404 19.272 10.0057C18.1493 12.3613 16.2134 14.5626 12.9994 14.9424V21H17.9994C18.5516 21 18.9994 21.4477 18.9994 22C18.9994 22.5523 18.5516 23 17.9994 23H5.99936C5.44708 23 4.99936 22.5523 4.99936 22C4.99936 21.4477 5.44708 21 5.99936 21H10.9994V14.9424C7.78534 14.5626 5.84948 12.3613 4.72676 10.0057C3.50585 7.44404 3.15212 4.5436 3.04621 3.06513ZM5.04681 3C5.1536 4.41502 5.49231 6.96339 6.53219 9.14522C7.57767 11.3388 9.23444 13 11.9994 13C14.7643 13 16.4211 11.3388 17.4665 9.14522C18.5064 6.96339 18.8451 4.41502 18.9519 3H5.04681Z" fill="#049473"/>
</svg>
