<svg width="28" height="28" viewBox="0 0 28 28" fill="none" xmlns="http://www.w3.org/2000/svg">
<g opacity="0.7">
<path fill-rule="evenodd" clip-rule="evenodd" d="M23.0793 4.57076C23.486 4.4744 23.7695 4.37965 24.0017 4.28014C24.3272 4.14068 24.5971 3.97361 25.0235 3.69225C25.3818 3.45579 25.841 3.43519 26.219 3.63863C26.597 3.84208 26.8328 4.23668 26.8328 4.66597C26.8328 5.92706 26.6757 6.96065 26.3118 7.87028C26.0058 8.63538 25.5757 9.25682 25.0614 9.82243C24.8441 13.7461 23.7084 16.8274 21.972 19.1618C20.1723 21.5813 17.7778 23.1308 15.2537 23.9984C12.737 24.8636 10.0778 25.0569 7.69559 24.764C5.32896 24.473 3.14132 23.6895 1.6165 22.5035C1.19892 22.1787 1.05214 21.6136 1.25887 21.1267C1.4656 20.6397 1.9741 20.3528 2.49779 20.4276C3.99808 20.642 5.44229 20.3009 6.62983 19.8132C6.39606 19.686 6.17564 19.5484 5.97077 19.4065C4.88865 18.6574 4.01557 17.6404 3.6226 16.8545C3.45998 16.5292 3.45831 16.1468 3.61806 15.8201C3.70048 15.6516 3.82099 15.5079 3.96731 15.3985C2.38734 14.0945 1.74943 12.2909 1.74943 11.0826C1.74943 10.7234 1.91495 10.3842 2.19813 10.1631C2.31719 10.0701 2.45148 10.0024 2.59304 9.96159C2.47481 9.61539 2.38306 9.26562 2.31312 8.927C2.00307 7.42565 2.03058 5.73111 2.36759 4.38302C2.48292 3.9217 2.86669 3.57654 3.33761 3.51058C3.80853 3.44463 4.27235 3.67108 4.50998 4.08296C5.76707 6.26193 8.08579 7.59381 10.2438 8.38276C11.2584 8.75369 12.198 8.99006 12.9023 9.13538C13.0543 7.71136 13.452 6.537 14.0622 5.60426C14.8673 4.37368 15.9902 3.64559 17.1962 3.32094C19.2759 2.76106 21.5837 3.39893 23.0793 4.57076ZM12.5393 11.4427C11.74 11.2822 10.6414 11.0125 9.44258 10.5742C7.85916 9.99534 6.02047 9.09268 4.48028 7.69446C4.50784 7.95176 4.54698 8.20688 4.59824 8.45507C4.85636 9.70496 5.336 10.405 5.77118 10.6225C6.30343 10.8887 6.55009 11.5127 6.34362 12.0708C6.06409 12.8264 5.32888 12.8885 4.66086 12.7215C5.19814 13.527 6.16384 14.3301 7.77456 14.5986C8.33011 14.6912 8.7402 15.1674 8.74928 15.7306C8.75836 16.2937 8.36384 16.7829 7.81156 16.8934L6.79603 17.0965C6.95138 17.2315 7.1196 17.3639 7.29892 17.4881C8.11199 18.051 8.92836 18.2937 9.63314 18.1175C10.161 17.9856 10.71 18.236 10.9563 18.7212C11.2027 19.2063 11.081 19.7973 10.663 20.1456C9.91174 20.7709 9.0344 21.2726 8.1551 21.6891C7.74232 21.8847 7.281 22.0776 6.77998 22.2475C7.16532 22.3297 7.56627 22.3972 7.98035 22.4481C10.046 22.7021 12.3452 22.5309 14.4952 21.7918C16.6377 21.0554 18.6182 19.7611 20.0998 17.7692C21.5793 15.7801 22.6118 13.0273 22.7502 9.28953C22.7611 8.99525 22.8829 8.71598 23.0911 8.50775C23.6157 7.98316 24.0492 7.38187 24.2625 6.66616C23.8893 6.7825 23.4691 6.88321 22.9685 6.9789C22.5888 7.05149 22.1978 6.93129 21.9245 6.65795C21.0325 5.766 19.2685 5.17945 17.8027 5.57406C17.1128 5.75978 16.4857 6.16184 16.0148 6.8817C15.5339 7.61668 15.1661 8.76166 15.1661 10.4994C15.1661 10.8295 15.0262 11.1442 14.7812 11.3654C14.2002 11.8898 13.2224 11.5798 12.5393 11.4427Z" fill="white"/>
<path fill-rule="evenodd" clip-rule="evenodd" d="M23.1891 4.02776C23.4535 3.95697 23.6463 3.88861 23.8049 3.82069C24.0857 3.70035 24.3233 3.55539 24.7481 3.27507C25.2599 2.93727 25.9159 2.90785 26.456 3.19848C26.996 3.48912 27.3328 4.05284 27.3328 4.66611C27.3328 5.96759 27.1709 7.06914 26.7761 8.05611C26.4677 8.82695 26.0445 9.45974 25.5503 10.0255C25.3046 13.9506 24.1496 17.0721 22.3732 19.4603C20.5054 21.9715 18.0221 23.5757 15.4163 24.4714C12.8209 25.3636 10.0847 25.5616 7.63461 25.2604C5.20688 24.9619 2.92541 24.1551 1.30956 22.8983C0.713024 22.4343 0.503331 21.627 0.798661 20.9314C1.09399 20.2358 1.82042 19.8259 2.56855 19.9328C3.58607 20.0782 4.58616 19.9475 5.49636 19.6823C4.44327 18.9085 3.58734 17.9021 3.17542 17.0782C2.94311 16.6136 2.94072 16.0672 3.16894 15.6006C3.19647 15.5443 3.22697 15.49 3.26023 15.4377C1.84387 14.0755 1.24946 12.329 1.24946 11.0828C1.24946 10.5695 1.48592 10.0849 1.89046 9.76909C1.92204 9.74444 1.95437 9.72102 1.98737 9.69887C1.92302 9.4725 1.86882 9.24774 1.82349 9.02826C1.4993 7.4585 1.52611 5.68774 1.88256 4.26189C2.04731 3.60287 2.59555 3.10978 3.26829 3.01555C3.94103 2.92133 4.60364 3.24483 4.94311 3.83324C6.11399 5.86277 8.30151 7.14043 10.4155 7.9133C11.1676 8.18829 11.8784 8.38749 12.4778 8.52939C12.6735 7.28275 13.0657 6.21431 13.6438 5.33066C14.5206 3.99056 15.7498 3.19266 17.0662 2.83827C19.2251 2.25709 21.5845 2.86701 23.1891 4.02776ZM22.771 4.96448C21.3838 3.87763 19.2359 3.28978 17.3262 3.80389C16.2307 4.09879 15.2141 4.75707 14.4806 5.87814C13.9221 6.73193 13.5449 7.82675 13.3995 9.18858L13.3411 9.73657L12.8013 9.62521C12.0791 9.47618 11.1149 9.23374 10.0721 8.8525C7.87014 8.04746 5.42023 6.66136 4.07692 4.33296C3.94113 4.0976 3.67609 3.9682 3.40699 4.00589C3.1379 4.04358 2.9186 4.24081 2.8527 4.50442C2.53512 5.77477 2.5069 7.39308 2.80282 8.82601C2.8691 9.14691 2.95562 9.47623 3.06624 9.80014L3.23587 10.2969L2.7315 10.4422C2.65061 10.4655 2.57393 10.5042 2.50586 10.5573C2.34405 10.6836 2.24946 10.8775 2.24946 11.0828C2.24946 12.1446 2.82286 13.8057 4.28561 15.013L4.77628 15.4179L4.26683 15.799C4.18317 15.8616 4.11435 15.9437 4.06725 16.0399C3.97596 16.2266 3.97692 16.4451 4.06985 16.631C4.41938 17.3301 5.23076 18.2862 6.25541 18.9956C6.44685 19.1281 6.65206 19.2562 6.86882 19.3741L7.79217 19.8764L6.81983 20.2758C5.58158 20.7844 4.04432 21.1538 2.4271 20.9228C2.12784 20.88 1.83727 21.0439 1.71914 21.3222C1.60101 21.6005 1.68489 21.9234 1.9235 22.109C3.3573 23.2241 5.45111 23.9844 7.75665 24.2679C10.0711 24.5524 12.6531 24.3638 15.0912 23.5257C17.5336 22.6862 19.8394 21.1914 21.5708 18.8635C23.2408 16.6183 24.3496 13.6347 24.5622 9.79492L24.572 9.61757L24.6915 9.48616C25.1749 8.95461 25.5683 8.38291 25.8476 7.68471C26.1805 6.85244 26.3328 5.88681 26.3328 4.66611C26.3328 4.4208 26.1981 4.19531 25.9821 4.07906C25.7661 3.96281 25.5037 3.97457 25.2989 4.10969C24.871 4.39211 24.5688 4.58128 24.1987 4.73987C23.9346 4.85304 23.6227 4.95598 23.1947 5.05742L22.9605 5.11293L22.771 4.96448ZM19.9423 6.11469C19.274 5.92502 18.5605 5.88801 17.9327 6.05701C17.3536 6.21292 16.8327 6.54503 16.4332 7.15558C16.0197 7.78768 15.6661 8.82967 15.6661 10.4995C15.6661 10.9711 15.4663 11.4207 15.1162 11.7367C14.6756 12.1344 14.1168 12.1838 13.6625 12.151C13.3212 12.1263 12.9582 12.046 12.6739 11.9832C12.5881 11.9642 12.5095 11.9468 12.4409 11.933C11.6232 11.7688 10.4992 11.493 9.27093 11.044C8.00903 10.5826 6.57433 9.91542 5.24299 8.95368C5.33688 9.24877 5.4431 9.48822 5.55155 9.67639C5.72967 9.98545 5.89564 10.1259 5.99482 10.1755C6.75517 10.5556 7.10755 11.4472 6.8126 12.2444C6.6164 12.7748 6.23828 13.0895 5.78932 13.2219C5.78862 13.2221 5.78792 13.2223 5.78722 13.2225C6.27652 13.6199 6.94753 13.954 7.8568 14.1055C8.65043 14.2378 9.23628 14.9182 9.24925 15.7226C9.26152 16.4835 8.75809 17.1499 8.03605 17.3534C8.60444 17.6529 9.10831 17.7335 9.5119 17.6326C10.266 17.4441 11.0503 17.8019 11.4022 18.4949C11.7541 19.188 11.5802 20.0323 10.9831 20.5299C10.2663 21.1265 9.44953 21.6102 8.63568 22.0123C10.4739 22.1597 12.4646 21.9613 14.3327 21.3191C16.3934 20.6108 18.2852 19.3712 19.6986 17.471C21.1092 15.5746 22.1153 12.9233 22.2506 9.27116C22.2662 8.85076 22.4402 8.45181 22.7376 8.15434C22.974 7.91799 23.1837 7.67158 23.3578 7.41118C23.2621 7.43117 23.1637 7.45079 23.0624 7.47015C22.52 7.57384 21.9614 7.40213 21.571 7.01164C21.1964 6.63708 20.6126 6.30492 19.9423 6.11469ZM20.2153 5.15268C21.0165 5.38006 21.7607 5.78714 22.2781 6.30453C22.4343 6.46073 22.6577 6.52941 22.8746 6.48793C23.3629 6.39459 23.7637 6.29805 24.1138 6.18895L25.0098 5.90967L24.7417 6.80909C24.4969 7.63073 24.0049 8.30123 23.4447 8.86144C23.3257 8.98043 23.2561 9.14002 23.2499 9.30817C23.1083 13.1316 22.0496 15.9858 20.501 18.0678C18.9513 20.1513 16.8821 21.5002 14.6577 22.2648C12.4292 23.0309 10.0529 23.2068 7.91936 22.9445C7.49101 22.8918 7.0756 22.8219 6.6757 22.7366L4.89874 22.3575L6.61946 21.7741C7.09999 21.6112 7.54341 21.4258 7.9411 21.2374C8.79894 20.8311 9.63575 20.3503 10.3431 19.7615C10.5818 19.5624 10.6513 19.2248 10.5106 18.9477C10.3698 18.6705 10.0561 18.5273 9.75444 18.6028C8.85267 18.8282 7.88644 18.5031 7.01435 17.8993C6.81871 17.7639 6.63604 17.62 6.46803 17.474L5.69961 16.806L7.71354 16.4032C8.02913 16.3401 8.25457 16.0606 8.24938 15.7388C8.24419 15.417 8.00985 15.1448 7.6924 15.0919C5.9401 14.7999 4.85586 13.915 4.24493 12.999L3.52703 11.9227L4.78218 12.2365C5.07099 12.3087 5.32306 12.3168 5.5066 12.2627C5.66213 12.2168 5.79138 12.1228 5.87472 11.8975C5.9927 11.5786 5.85175 11.222 5.54761 11.0699C5.21161 10.9019 4.92017 10.5835 4.68514 10.1757C4.44625 9.76122 4.24587 9.22099 4.1086 8.55634C4.05385 8.2912 4.01232 8.02005 3.98316 7.74786L3.84314 6.44086L4.81639 7.3244C6.29218 8.66415 8.06632 9.53883 9.6143 10.1048C10.7837 10.5323 11.8568 10.7958 12.6377 10.9526C12.7438 10.9739 12.8471 10.9966 12.9485 11.019C13.217 11.0782 13.4729 11.1347 13.7346 11.1536C14.0853 11.1789 14.3058 11.1211 14.4462 10.9944C14.5862 10.868 14.6661 10.6881 14.6661 10.4995C14.6661 8.69392 15.0483 7.44596 15.5964 6.6081C16.1389 5.77893 16.8721 5.30692 17.6728 5.09139C18.5108 4.86578 19.4122 4.92474 20.2153 5.15268Z" fill="#09BC93"/>
</g>
</svg>
