<svg width="156" height="28" viewBox="0 0 156 28" fill="none" xmlns="http://www.w3.org/2000/svg">
<path d="M14.724 24.2784C14.3273 24.4184 13.674 24.4184 13.2773 24.2784C9.89398 23.1234 2.33398 18.305 2.33398 10.1384C2.33398 6.53337 5.23898 3.6167 8.82065 3.6167C10.944 3.6167 12.8223 4.64337 14.0007 6.23003C14.6001 5.42022 15.3808 4.76205 16.2803 4.30823C17.1798 3.85442 18.1731 3.61759 19.1807 3.6167C22.7623 3.6167 25.6673 6.53337 25.6673 10.1384C25.6673 18.305 18.1073 23.1234 14.724 24.2784Z" stroke="black" stroke-width="1.5" stroke-linecap="round" stroke-linejoin="round"/>
<path d="M74.278 2.33325L70.0547 6.56825M81.7214 2.33325L85.9447 6.56825" stroke="black" stroke-width="1.5" stroke-miterlimit="10" stroke-linecap="round" stroke-linejoin="round"/>
<path d="M66.334 9.15828C66.334 6.99995 67.489 6.82495 68.924 6.82495H87.0773C88.5123 6.82495 89.6673 6.99995 89.6673 9.15828C89.6673 11.6666 88.5123 11.4916 87.0773 11.4916H68.924C67.489 11.4916 66.334 11.6666 66.334 9.15828Z" stroke="black" stroke-width="1.5"/>
<path d="M75.3873 16.3334V20.4751M80.754 16.3334V20.4751M68.084 11.6667L69.729 21.7467C70.1023 24.0101 71.0007 25.6667 74.3373 25.6667H81.3723C85.0007 25.6667 85.5373 24.0801 85.9573 21.8867L87.9173 11.6667" stroke="black" stroke-width="1.5" stroke-linecap="round"/>
<path d="M142.187 12.6817C142.07 12.67 141.93 12.67 141.802 12.6817C140.463 12.6362 139.194 12.0713 138.264 11.1066C137.335 10.142 136.817 8.85322 136.82 7.51336C136.82 4.65503 139.13 2.33336 142 2.33336C142.68 2.3211 143.355 2.4428 143.988 2.6915C144.62 2.94021 145.197 3.31104 145.687 3.78284C146.176 4.25464 146.567 4.81816 146.838 5.44123C147.11 6.0643 147.256 6.73471 147.268 7.41419C147.28 8.09368 147.159 8.76892 146.91 9.40137C146.661 10.0338 146.29 10.6111 145.819 11.1002C145.347 11.5894 144.783 11.9808 144.16 12.2521C143.537 12.5235 142.867 12.6694 142.187 12.6817ZM136.354 16.9867C133.53 18.8767 133.53 21.9567 136.354 23.835C139.562 25.9817 144.824 25.9817 148.032 23.835C150.855 21.945 150.855 18.865 148.032 16.9867C144.835 14.8517 139.574 14.8517 136.354 16.9867Z" stroke="black" stroke-width="1.5" stroke-linecap="round" stroke-linejoin="round"/>
</svg>
