<svg width="44" height="47" viewBox="0 0 44 47" fill="none" xmlns="http://www.w3.org/2000/svg">
<g clip-path="url(#clip0_788_2555)">
<path opacity="0.64" d="M38.86 10.56C39.86 12.95 40.41 15.58 40.41 18.33C40.41 29.49 31.36 38.54 20.2 38.54C10.03 38.54 1.65 31.03 0.23 21.26C0.08 22.31 0 23.37 0 24.46C0 36.56 9.81 46.38 21.92 46.38C34.03 46.38 43.84 36.57 43.84 24.46C43.83 19.19 41.97 14.35 38.86 10.56Z" fill="#049473"/>
<path opacity="0.64" d="M41.1199 35.04C40.5599 35.72 39.6099 36.74 38.1499 37.56C38.1499 37.56 36.3299 38.58 34.0199 38.85C30.2599 39.28 17.9699 34.99 14.6599 23.89C12.1699 15.49 15.5999 5.9 23.3299 0C22.2699 0.05 21.2099 0.18 20.1399 0.39C8.26992 2.75 0.559918 14.29 2.90992 26.16C5.26992 38.03 16.7999 45.75 28.6799 43.39C31.9999 42.73 34.7899 41.2 34.7899 41.2C38.2199 39.21 40.1799 36.53 41.1199 35.04Z" fill="#049473"/>
<path opacity="0.64" d="M41.2195 34.97C40.6395 35.43 39.6795 36.08 38.3495 36.49C38.3495 36.49 36.6795 37 34.7495 36.81C31.5995 36.49 22.3295 30.79 21.6195 21.13C21.0895 13.84 25.5995 6.61999 32.9595 3.18999C32.0895 3.04999 31.1995 2.95999 30.2895 2.93999C20.1795 2.73999 11.8195 10.78 11.6195 20.89C11.4295 31 19.4595 39.36 29.5795 39.56C32.3995 39.62 34.9595 38.87 34.9595 38.87C38.1195 37.86 40.1895 36.02 41.2195 34.97Z" fill="#049473"/>
<path opacity="0.64" d="M39.7699 35.5C39.3099 35.72 38.5399 36.01 37.5699 36.08C37.5699 36.08 36.3499 36.16 35.0699 35.72C32.9799 35 27.5899 29.64 28.6599 22.96C29.4599 17.91 33.6899 13.73 39.2499 12.58C38.6799 12.34 38.0899 12.14 37.4699 11.98C30.6199 10.22 23.6499 14.35 21.8999 21.19C20.1399 28.04 24.2699 35.01 31.1099 36.76C33.0199 37.25 34.8799 37.15 34.8799 37.15C37.1899 36.97 38.8999 36.06 39.7699 35.5Z" fill="#049473"/>
</g>
<defs>
<clipPath id="clip0_788_2555">
<rect width="43.83" height="46.38" fill="white"/>
</clipPath>
</defs>
</svg>
