<svg width="52" height="55" viewBox="0 0 52 55" fill="none" xmlns="http://www.w3.org/2000/svg">
<g clip-path="url(#clip0_258_2231)">
<path opacity="0.64" d="M46.1697 12.8203C47.3363 15.6086 47.978 18.677 47.978 21.8853C47.978 34.9053 37.4197 45.4636 24.3997 45.4636C12.5347 45.4636 2.75801 36.702 1.10134 25.3036C0.926341 26.5286 0.833008 27.7653 0.833008 29.037C0.833008 43.1536 12.278 54.6103 26.4063 54.6103C40.5347 54.6103 51.9797 43.1653 51.9797 29.037C51.968 22.8886 49.798 17.242 46.1697 12.8203Z" fill="#049473"/>
<path opacity="0.64" d="M48.8066 41.38C48.1532 42.1733 47.0449 43.3633 45.3416 44.32C45.3416 44.32 43.2182 45.51 40.5232 45.825C36.1366 46.3267 21.7982 41.3217 17.9366 28.3717C15.0316 18.5717 19.0332 7.38333 28.0516 0.5C26.8149 0.558333 25.5782 0.71 24.3299 0.955C10.4816 3.70833 1.48657 17.1717 4.22824 31.02C6.98157 44.8683 20.4332 53.875 34.2932 51.1217C38.1666 50.3517 41.4216 48.5667 41.4216 48.5667C45.4232 46.245 47.7099 43.1183 48.8066 41.38Z" fill="#049473"/>
<path opacity="0.64" d="M48.9229 41.2984C48.2463 41.835 47.1263 42.5934 45.5746 43.0717C45.5746 43.0717 43.6263 43.6667 41.3746 43.445C37.6996 43.0717 26.8846 36.4217 26.0563 25.1517C25.4379 16.6467 30.6996 8.22337 39.2863 4.22171C38.2713 4.05838 37.2329 3.95338 36.1713 3.93004C24.3763 3.69671 14.6229 13.0767 14.3896 24.8717C14.1679 36.6667 23.5363 46.42 35.3429 46.6534C38.6329 46.7234 41.6196 45.8484 41.6196 45.8484C45.3063 44.67 47.7213 42.5234 48.9229 41.2984Z" fill="#049473"/>
<path opacity="0.64" d="M47.2309 41.9173C46.6942 42.1739 45.7959 42.5123 44.6642 42.5939C44.6642 42.5939 43.2409 42.6873 41.7475 42.1739C39.3092 41.3339 33.0209 35.0806 34.2692 27.2873C35.2025 21.3956 40.1375 16.5189 46.6242 15.1773C45.9592 14.8973 45.2709 14.6639 44.5475 14.4773C36.5559 12.4239 28.4242 17.2423 26.3825 25.2223C24.3292 33.2139 29.1475 41.3456 37.1275 43.3873C39.3559 43.9589 41.5259 43.8423 41.5259 43.8423C44.2209 43.6323 46.2159 42.5706 47.2309 41.9173Z" fill="#049473"/>
</g>
<defs>
<clipPath id="clip0_258_2231">
<rect width="51.135" height="54.11" fill="white" transform="translate(0.833008 0.5)"/>
</clipPath>
</defs>
</svg>
