<svg width="25" height="24" viewBox="0 0 25 24" fill="none" xmlns="http://www.w3.org/2000/svg">
<g clip-path="url(#clip0_258_2211)">
<path d="M12.7285 9.90625V14.3677H19.0635C18.7854 15.8024 17.9506 17.0173 16.6986 17.8342L20.5188 20.7352C22.7447 18.7245 24.0288 15.7711 24.0288 12.2627C24.0288 11.4459 23.9539 10.6603 23.8148 9.90638L12.7285 9.90625Z" fill="#4285F4"/>
<path d="M6.13218 14.1934L5.27056 14.8388L2.2207 17.1638C4.15759 20.9235 8.1274 23.5208 12.7288 23.5208C15.907 23.5208 18.5715 22.4944 20.5191 20.735L16.6989 17.834C15.6502 18.5252 14.3125 18.9442 12.7288 18.9442C9.66834 18.9442 7.06805 16.923 6.13699 14.2L6.13218 14.1934Z" fill="#34A853"/>
<path d="M2.22064 6.83789C1.41811 8.3878 0.958008 10.1368 0.958008 12.0009C0.958008 13.865 1.41811 15.614 2.22064 17.1639C2.22064 17.1743 6.1373 14.1897 6.1373 14.1897C5.90188 13.4985 5.76273 12.7654 5.76273 12.0008C5.76273 11.2362 5.90188 10.5031 6.1373 9.81192L2.22064 6.83789Z" fill="#FBBC05"/>
<path d="M12.7291 5.06755C14.4627 5.06755 16.0036 5.65401 17.2342 6.78508L20.605 3.4862C18.5611 1.62207 15.9073 0.480469 12.7291 0.480469C8.12764 0.480469 4.15759 3.06724 2.2207 6.83746L6.13724 9.81173C7.06818 7.08878 9.66858 5.06755 12.7291 5.06755Z" fill="#EA4335"/>
</g>
<defs>
<clipPath id="clip0_258_2211">
<rect width="24" height="24" fill="white" transform="translate(0.5)"/>
</clipPath>
</defs>
</svg>
