<svg width="211" height="44" viewBox="0 0 211 44" fill="none" xmlns="http://www.w3.org/2000/svg">
<g clip-path="url(#clip0_258_2220)">
<path d="M13.988 15.6934H0.833008V43.2559H13.988C19.5305 43.2559 24.0155 40.6352 24.0155 37.4065V21.5427C24.023 18.3096 19.5305 15.6934 13.988 15.6934ZM16.613 37.1046C16.613 38.3559 14.873 39.3752 12.7205 39.3752H8.64051V19.6309H12.7205C14.8655 19.6309 16.613 20.6459 16.613 21.9015V37.1046Z" fill="#FBFBFB"/>
<path d="M49.5091 19.3809V15.6621H29.0566V19.3809V27.2909V31.014V39.5059V43.2246H49.5091V39.5059H35.4316V31.014H47.1541V27.2909H35.4316V19.3809H49.5091Z" fill="#FBFBFB"/>
<path d="M59.7604 15.6133L52.2754 43.1758H58.7329L60.1429 37.987H69.7129L71.1229 43.1758H77.5804L70.0954 15.6133H59.7604ZM61.1554 34.2727L64.9279 20.3733L68.7004 34.2727H61.1554Z" fill="#FBFBFB"/>
<path d="M87.9316 39.5625V15.7188H81.5566V39.5625V43.2812H102.009V39.5625H87.9316Z" fill="#FBFBFB"/>
<path d="M125.041 19.3359V15.6172H110.964H104.589V19.3359V43.1797H110.964V31.6341H122.664V27.9109H110.964V19.3359H125.041Z" fill="#FBFBFB"/>
<path d="M133.996 39.5625V15.7188H127.621V39.5625V43.2812H148.074V39.5625H133.996Z" fill="#FBFBFB"/>
<path d="M163.215 15.5H159.217C153.967 15.5 149.715 17.9806 149.715 21.0431V37.9569C149.715 41.0194 153.967 43.5 159.217 43.5H163.215C168.465 43.5 172.717 41.0194 172.717 37.9569V21.0431C172.717 17.9806 168.465 15.5 163.215 15.5ZM165.12 37.5413C165.12 38.8013 163.372 39.8206 161.212 39.8206C159.052 39.8206 157.305 38.8013 157.305 37.5413V21.4631C157.305 20.2031 159.052 19.1838 161.212 19.1838C163.372 19.1838 165.12 20.2031 165.12 21.4631V37.5413Z" fill="#FBFBFB"/>
<path d="M190.733 43.1405L193.478 27.9067L196.223 43.1405H205.876L210.833 15.6523H204.421L200.626 36.6917L196.838 15.6523H190.118L186.241 37.1511L182.371 15.6523H175.958L180.908 43.1405H190.733Z" fill="#FBFBFB"/>
</g>
<defs>
<clipPath id="clip0_258_2220">
<rect width="210" height="43.1667" fill="white" transform="translate(0.833008 0.333984)"/>
</clipPath>
</defs>
</svg>
