<svg width="124" height="131" viewBox="0 0 124 131" fill="none" xmlns="http://www.w3.org/2000/svg">
<g clip-path="url(#clip0_811_3323)">
<path opacity="0.64" d="M109.646 29.9175C112.442 36.6006 113.98 43.9549 113.98 51.6447C113.98 82.8514 88.6733 108.158 57.4667 108.158C29.0283 108.158 5.59536 87.1577 1.62462 59.8379C1.20518 62.774 0.981476 65.738 0.981476 68.786C0.981476 102.621 28.4131 130.081 62.2763 130.081C96.1394 130.081 123.571 102.649 123.571 68.786C123.543 54.0495 118.342 40.5154 109.646 29.9175Z" fill="#049473"/>
<path opacity="0.64" d="M115.965 98.3709C114.399 100.272 111.743 103.125 107.66 105.418C107.66 105.418 102.571 108.27 96.1115 109.025C85.5974 110.227 51.2309 98.2311 41.9752 67.1922C35.0124 43.7033 44.6037 16.8868 66.2191 0.388672C63.255 0.528487 60.2909 0.892005 57.2989 1.47923C24.1068 8.07849 2.54739 40.3477 9.11869 73.5398C15.7179 106.732 47.9592 128.319 81.1792 121.72C90.463 119.874 98.2646 115.596 98.2646 115.596C107.856 110.031 113.337 102.537 115.965 98.3709Z" fill="#049473"/>
<path opacity="0.64" d="M116.243 98.1752C114.622 99.4615 111.937 101.279 108.218 102.426C108.218 102.426 103.548 103.852 98.1514 103.32C89.3431 102.426 63.4214 86.4867 61.436 59.4745C59.954 39.0895 72.5653 18.9002 93.146 9.3089C90.7133 8.91741 88.2246 8.66575 85.6799 8.60982C57.4094 8.05056 34.0323 30.5328 33.4731 58.8033C32.9418 87.0739 55.396 110.451 83.6946 111.01C91.5801 111.178 98.7386 109.081 98.7386 109.081C107.575 106.256 113.363 101.111 116.243 98.1752Z" fill="#049473"/>
<path opacity="0.64" d="M112.19 99.6569C110.904 100.272 108.75 101.083 106.038 101.279C106.038 101.279 102.626 101.502 99.0472 100.272C93.203 98.2587 78.1309 83.2706 81.123 64.5913C83.36 50.47 95.1883 38.7815 110.736 35.5658C109.142 34.8946 107.492 34.3354 105.758 33.888C86.6037 28.9665 67.1135 40.5152 62.22 59.6419C57.2985 78.7965 68.8472 98.2867 87.9739 103.18C93.3148 104.55 98.5159 104.271 98.5159 104.271C104.975 103.767 109.757 101.223 112.19 99.6569Z" fill="#049473"/>
</g>
<defs>
<clipPath id="clip0_811_3323">
<rect width="122.562" height="129.692" fill="white" transform="translate(0.981476 0.388672)"/>
</clipPath>
</defs>
</svg>
