<svg width="28" height="28" viewBox="0 0 28 28" fill="none" xmlns="http://www.w3.org/2000/svg">
<g opacity="0.7">
<path d="M10.5007 25.6673H17.5007C23.334 25.6673 25.6673 23.334 25.6673 17.5007V10.5007C25.6673 4.66732 23.334 2.33398 17.5007 2.33398H10.5007C4.66732 2.33398 2.33398 4.66732 2.33398 10.5007V17.5007C2.33398 23.334 4.66732 25.6673 10.5007 25.6673Z" stroke="#FBFBFB" stroke-width="1.5" stroke-linecap="round" stroke-linejoin="round"/>
<path d="M13.9993 18.0827C16.2545 18.0827 18.0827 16.2545 18.0827 13.9993C18.0827 11.7442 16.2545 9.91602 13.9993 9.91602C11.7442 9.91602 9.91602 11.7442 9.91602 13.9993C9.91602 16.2545 11.7442 18.0827 13.9993 18.0827Z" stroke="#FBFBFB" stroke-width="1.5" stroke-linecap="round" stroke-linejoin="round"/>
<path d="M20.5761 8.16732H20.5896" stroke="#FBFBFB" stroke-width="2" stroke-linecap="round" stroke-linejoin="round"/>
</g>
</svg>
