<svg width="32" height="32" viewBox="0 0 32 32" fill="none" xmlns="http://www.w3.org/2000/svg">
<path d="M22.6668 24.5736H17.3334L11.4001 28.5203C10.5201 29.1069 9.33342 28.4803 9.33342 27.4137V24.5736C5.33342 24.5736 2.66675 21.907 2.66675 17.907V9.9069C2.66675 5.9069 5.33342 3.24023 9.33342 3.24023H22.6668C26.6668 3.24023 29.3334 5.9069 29.3334 9.9069V17.907C29.3334 21.907 26.6668 24.5736 22.6668 24.5736Z" stroke="#049473" stroke-width="2.5" stroke-miterlimit="10" stroke-linecap="round" stroke-linejoin="round"/>
<path d="M16 15.1465V14.8665C16 13.9599 16.56 13.4798 17.12 13.0932C17.6667 12.7198 18.2133 12.2399 18.2133 11.3599C18.2133 10.1332 17.2267 9.14648 16 9.14648C14.7733 9.14648 13.7867 10.1332 13.7867 11.3599" stroke="#049473" stroke-width="2" stroke-linecap="round" stroke-linejoin="round"/>
<path d="M15.9939 18.3337H16.0059" stroke="#049473" stroke-width="2" stroke-linecap="round" stroke-linejoin="round"/>
</svg>
