<svg width="32" height="32" viewBox="0 0 32 32" fill="none" xmlns="http://www.w3.org/2000/svg">
<path d="M11.3334 25.3336H10.6668C5.33342 25.3336 2.66675 24.0003 2.66675 17.3337V10.667C2.66675 5.33366 5.33342 2.66699 10.6668 2.66699H21.3334C26.6668 2.66699 29.3334 5.33366 29.3334 10.667V17.3337C29.3334 22.667 26.6668 25.3336 21.3334 25.3336H20.6668C20.2534 25.3336 19.8534 25.5336 19.6001 25.867L17.6001 28.5336C16.7201 29.707 15.2801 29.707 14.4001 28.5336L12.4001 25.867C12.1868 25.5736 11.6934 25.3336 11.3334 25.3336Z" stroke="#049473" stroke-width="2.5" stroke-miterlimit="10" stroke-linecap="round" stroke-linejoin="round"/>
<path d="M21.3286 14.6667H21.3406" stroke="#049473" stroke-width="3" stroke-linecap="round" stroke-linejoin="round"/>
<path d="M15.994 14.6667H16.006" stroke="#049473" stroke-width="3" stroke-linecap="round" stroke-linejoin="round"/>
<path d="M10.6593 14.6667H10.6713" stroke="#049473" stroke-width="3" stroke-linecap="round" stroke-linejoin="round"/>
</svg>
