<svg width="26" height="26" viewBox="0 0 26 26" fill="none" xmlns="http://www.w3.org/2000/svg">
<path d="M16.8787 13C16.8787 15.145 15.1454 16.8783 13.0004 16.8783C10.8554 16.8783 9.12207 15.145 9.12207 13C9.12207 10.855 10.8554 9.12167 13.0004 9.12167C15.1454 9.12167 16.8787 10.855 16.8787 13Z" stroke="#049473" stroke-width="1.5" stroke-linecap="round" stroke-linejoin="round"/>
<path d="M12.9998 21.9592C16.824 21.9592 20.3882 19.7058 22.869 15.8058C23.844 14.2783 23.844 11.7108 22.869 10.1833C20.3882 6.28333 16.824 4.03 12.9998 4.03C9.17566 4.03 5.6115 6.28333 3.13066 10.1833C2.15566 11.7108 2.15566 14.2783 3.13066 15.8058C5.6115 19.7058 9.17566 21.9592 12.9998 21.9592Z" stroke="#049473" stroke-width="1.5" stroke-linecap="round" stroke-linejoin="round"/>
</svg>
