<svg width="32" height="32" viewBox="0 0 32 32" fill="none" xmlns="http://www.w3.org/2000/svg">
<path d="M18.667 8.26656V13.3333C14.947 13.4 13.4003 14.9466 13.3337 18.6666H8.26699C4.26699 18.6666 2.66699 17.0667 2.66699 13.0667V8.26656C2.66699 4.26656 4.26699 2.66663 8.26699 2.66663H13.067C17.067 2.66663 18.667 4.26656 18.667 8.26656Z" stroke="#292D32" stroke-width="2" stroke-linecap="round" stroke-linejoin="round"/>
<path d="M9.28026 7.82657C8.57359 7.34657 7.64026 7.3466 6.93359 7.85326" stroke="#292D32" stroke-width="2" stroke-miterlimit="10" stroke-linecap="round" stroke-linejoin="round"/>
<path d="M14.6133 7.82661C13.9066 7.34661 12.9733 7.34663 12.2666 7.8533" stroke="#292D32" stroke-width="2" stroke-miterlimit="10" stroke-linecap="round" stroke-linejoin="round"/>
<path d="M10.8797 15.2267H7.78641C7.38641 15.2267 7.06641 14.9067 7.06641 14.5067C7.06641 12.52 8.67974 10.9067 10.6664 10.9067C11.5197 10.9067 12.3064 11.2 12.9197 11.6934" stroke="#292D32" stroke-width="2" stroke-miterlimit="10" stroke-linecap="round" stroke-linejoin="round"/>
<path d="M29.333 18.9333V23.7334C29.333 27.7334 27.733 29.3334 23.733 29.3334H18.933C14.933 29.3334 13.333 27.7334 13.333 23.7334V18.6667C13.3997 14.9467 14.9463 13.4 18.6663 13.3334H23.733C27.733 13.3334 29.333 14.9333 29.333 18.9333Z" stroke="#292D32" stroke-width="2" stroke-linecap="round" stroke-linejoin="round"/>
<path d="M19.9463 18.16C19.2396 18.64 18.3063 18.64 17.5996 18.1333" stroke="#292D32" stroke-width="2" stroke-miterlimit="10" stroke-linecap="round" stroke-linejoin="round"/>
<path d="M25.2803 18.16C24.5736 18.64 23.6403 18.64 22.9336 18.1333" stroke="#292D32" stroke-width="2" stroke-miterlimit="10" stroke-linecap="round" stroke-linejoin="round"/>
<path d="M18.4534 21.5734H24.2134C24.6134 21.5734 24.9334 21.8933 24.9334 22.2933C24.9334 24.28 23.3201 25.8934 21.3334 25.8934C19.3467 25.8934 17.7334 24.28 17.7334 22.2933C17.7334 21.8933 18.0534 21.5734 18.4534 21.5734Z" stroke="#292D32" stroke-width="2" stroke-miterlimit="10" stroke-linecap="round" stroke-linejoin="round"/>
</svg>
