<svg width="32" height="32" viewBox="0 0 32 32" fill="none" xmlns="http://www.w3.org/2000/svg">
<path d="M29.2937 24.44C29.2937 24.92 29.187 25.4133 28.9603 25.8933C28.7337 26.3733 28.4403 26.8267 28.0537 27.2533C27.4003 27.9733 26.6803 28.4933 25.867 28.8267C25.067 29.16 24.2003 29.3333 23.267 29.3333C21.907 29.3333 20.4537 29.0133 18.9203 28.36C17.387 27.7067 15.8537 26.8267 14.3337 25.72C12.8003 24.6 11.347 23.36 9.96033 21.9867C8.58699 20.6 7.34699 19.1467 6.24033 17.6267C5.14699 16.1067 4.26699 14.5867 3.62699 13.08C2.98699 11.56 2.66699 10.1067 2.66699 8.72C2.66699 7.81333 2.82699 6.94666 3.14699 6.14666C3.46699 5.33333 3.97366 4.58666 4.68033 3.92C5.53366 3.08 6.46699 2.66666 7.45366 2.66666C7.82699 2.66666 8.20033 2.74666 8.53366 2.90666C8.88033 3.06666 9.18699 3.30666 9.42699 3.65333L12.5203 8.01333C12.7603 8.34666 12.9337 8.65333 13.0537 8.94666C13.1737 9.22666 13.2403 9.50666 13.2403 9.76C13.2403 10.08 13.147 10.4 12.9603 10.7067C12.787 11.0133 12.5337 11.3333 12.2137 11.6533L11.2003 12.7067C11.0537 12.8533 10.987 13.0267 10.987 13.24C10.987 13.3467 11.0003 13.44 11.027 13.5467C11.067 13.6533 11.107 13.7333 11.1337 13.8133C11.3737 14.2533 11.787 14.8267 12.3737 15.52C12.9737 16.2133 13.6137 16.92 14.307 17.6267C15.027 18.3333 15.7203 18.9867 16.427 19.5867C17.1203 20.1733 17.6937 20.5733 18.147 20.8133C18.2137 20.84 18.2937 20.88 18.387 20.92C18.4937 20.96 18.6003 20.9733 18.7203 20.9733C18.947 20.9733 19.1203 20.8933 19.267 20.7467L20.2803 19.7467C20.6137 19.4133 20.9337 19.16 21.2403 19C21.547 18.8133 21.8537 18.72 22.187 18.72C22.4403 18.72 22.707 18.7733 23.0003 18.8933C23.2937 19.0133 23.6003 19.1867 23.9337 19.4133L28.347 22.5467C28.6937 22.7867 28.9337 23.0667 29.0803 23.4C29.2137 23.7333 29.2937 24.0667 29.2937 24.44Z" stroke="#292D32" stroke-width="2" stroke-miterlimit="10"/>
</svg>
