<svg width="32" height="32" viewBox="0 0 32 32" fill="none" xmlns="http://www.w3.org/2000/svg">
<path d="M16 18.6667H17.3333C18.8 18.6667 20 17.4667 20 16V2.66667H8C6 2.66667 4.25335 3.77332 3.34668 5.39998" stroke="#292D32" stroke-width="2" stroke-linecap="round" stroke-linejoin="round"/>
<path d="M2.66699 22.6667C2.66699 24.88 4.45366 26.6667 6.66699 26.6667H8.00033C8.00033 25.2 9.20033 24 10.667 24C12.1337 24 13.3337 25.2 13.3337 26.6667H18.667C18.667 25.2 19.867 24 21.3337 24C22.8003 24 24.0003 25.2 24.0003 26.6667H25.3337C27.547 26.6667 29.3337 24.88 29.3337 22.6667V18.6667H25.3337C24.6003 18.6667 24.0003 18.0667 24.0003 17.3333V13.3333C24.0003 12.6 24.6003 12 25.3337 12H27.0536L24.7737 8.01335C24.2937 7.18668 23.4137 6.66667 22.4537 6.66667H20.0003V16C20.0003 17.4667 18.8003 18.6667 17.3337 18.6667H16.0003" stroke="#292D32" stroke-width="2" stroke-linecap="round" stroke-linejoin="round"/>
<path d="M10.6667 29.3333C12.1394 29.3333 13.3333 28.1394 13.3333 26.6667C13.3333 25.1939 12.1394 24 10.6667 24C9.19391 24 8 25.1939 8 26.6667C8 28.1394 9.19391 29.3333 10.6667 29.3333Z" stroke="#292D32" stroke-width="2" stroke-linecap="round" stroke-linejoin="round"/>
<path d="M21.3337 29.3333C22.8064 29.3333 24.0003 28.1394 24.0003 26.6667C24.0003 25.1939 22.8064 24 21.3337 24C19.8609 24 18.667 25.1939 18.667 26.6667C18.667 28.1394 19.8609 29.3333 21.3337 29.3333Z" stroke="#292D32" stroke-width="2" stroke-linecap="round" stroke-linejoin="round"/>
<path d="M29.3333 16V18.6667H25.3333C24.6 18.6667 24 18.0667 24 17.3333V13.3333C24 12.6 24.6 12 25.3333 12H27.0533L29.3333 16Z" stroke="#292D32" stroke-width="2" stroke-linecap="round" stroke-linejoin="round"/>
<path d="M2.66699 10.6667H10.667" stroke="#292D32" stroke-width="2" stroke-linecap="round" stroke-linejoin="round"/>
<path d="M2.66699 14.6667H8.00033" stroke="#292D32" stroke-width="2" stroke-linecap="round" stroke-linejoin="round"/>
<path d="M2.66699 18.6667H5.33366" stroke="#292D32" stroke-width="2" stroke-linecap="round" stroke-linejoin="round"/>
</svg>
