<svg width="26" height="26" viewBox="0 0 26 26" fill="none" xmlns="http://www.w3.org/2000/svg">
<path d="M19.4787 11.6892V16.0225C19.4787 16.3042 19.4678 16.575 19.4353 16.835C19.1862 19.76 17.4637 21.2117 14.2895 21.2117H13.8562C13.5853 21.2117 13.3253 21.3417 13.1628 21.5583L11.8628 23.2917C11.2887 24.0608 10.357 24.0608 9.78282 23.2917L8.48281 21.5583C8.34198 21.3742 8.02783 21.2117 7.78949 21.2117H7.35617C3.90033 21.2117 2.16699 20.3558 2.16699 16.0225V11.6892C2.16699 8.51501 3.6295 6.79251 6.54367 6.54334C6.80367 6.51084 7.0745 6.5 7.35617 6.5H14.2895C17.7453 6.5 19.4787 8.23334 19.4787 11.6892Z" stroke="#049473" stroke-width="1.5" stroke-miterlimit="10" stroke-linecap="round" stroke-linejoin="round"/>
<path d="M23.8113 7.35585V11.6892C23.8113 14.8742 22.3488 16.5858 19.4346 16.835C19.4671 16.575 19.478 16.3042 19.478 16.0225V11.6892C19.478 8.23335 17.7446 6.50001 14.2888 6.50001H7.35547C7.0738 6.50001 6.80297 6.51085 6.54297 6.54335C6.79214 3.62918 8.51464 2.16667 11.6888 2.16667H18.6221C22.078 2.16667 23.8113 3.90001 23.8113 7.35585Z" stroke="#049473" stroke-width="1.5" stroke-miterlimit="10" stroke-linecap="round" stroke-linejoin="round"/>
<path d="M14.6198 14.3542H14.6295" stroke="#049473" stroke-width="2" stroke-linecap="round" stroke-linejoin="round"/>
<path d="M10.8288 14.3542H10.8385" stroke="#049473" stroke-width="2" stroke-linecap="round" stroke-linejoin="round"/>
<path d="M7.03679 14.3542H7.04654" stroke="#049473" stroke-width="2" stroke-linecap="round" stroke-linejoin="round"/>
</svg>
