<svg width="28" height="28" viewBox="0 0 28 28" fill="none" xmlns="http://www.w3.org/2000/svg">
<g opacity="0.7">
<path d="M10.5007 25.6668H17.5007C23.334 25.6668 25.6673 23.3335 25.6673 17.5002V10.5002C25.6673 4.66683 23.334 2.3335 17.5007 2.3335H10.5007C4.66732 2.3335 2.33398 4.66683 2.33398 10.5002V17.5002C2.33398 23.3335 4.66732 25.6668 10.5007 25.6668Z" stroke="#FBFBFB" stroke-width="1.5" stroke-linecap="round" stroke-linejoin="round"/>
<path d="M13.9993 18.0832C16.2545 18.0832 18.0827 16.255 18.0827 13.9998C18.0827 11.7447 16.2545 9.9165 13.9993 9.9165C11.7442 9.9165 9.91602 11.7447 9.91602 13.9998C9.91602 16.255 11.7442 18.0832 13.9993 18.0832Z" stroke="#FBFBFB" stroke-width="1.5" stroke-linecap="round" stroke-linejoin="round"/>
<path d="M20.5761 8.16683H20.5896" stroke="#FBFBFB" stroke-width="2" stroke-linecap="round" stroke-linejoin="round"/>
</g>
</svg>
