<svg width="32" height="32" viewBox="0 0 32 32" fill="none" xmlns="http://www.w3.org/2000/svg">
<path d="M5.87955 22.3336C5.55955 26.187 8.46622 29.3336 12.3329 29.3336H18.7196C23.0662 29.3336 26.0529 25.827 25.3329 21.5336C24.5729 17.027 20.2262 13.3336 15.6529 13.3336C10.6929 13.3336 6.29289 17.387 5.87955 22.3336Z" stroke="#292D32" stroke-width="2" stroke-linecap="round" stroke-linejoin="round"/>
<path d="M13.9603 10.0003C15.8012 10.0003 17.2936 8.5079 17.2936 6.66695C17.2936 4.826 15.8012 3.33362 13.9603 3.33362C12.1193 3.33362 10.627 4.826 10.627 6.66695C10.627 8.5079 12.1193 10.0003 13.9603 10.0003Z" stroke="#292D32" stroke-width="2" stroke-linecap="round" stroke-linejoin="round"/>
<path d="M23.0671 11.6003C24.5398 11.6003 25.7337 10.4064 25.7337 8.93363C25.7337 7.46088 24.5398 6.26697 23.0671 6.26697C21.5943 6.26697 20.4004 7.46088 20.4004 8.93363C20.4004 10.4064 21.5943 11.6003 23.0671 11.6003Z" stroke="#292D32" stroke-width="2" stroke-linecap="round" stroke-linejoin="round"/>
<path d="M28 16.9333C29.1046 16.9333 30 16.0379 30 14.9333C30 13.8288 29.1046 12.9333 28 12.9333C26.8954 12.9333 26 13.8288 26 14.9333C26 16.0379 26.8954 16.9333 28 16.9333Z" stroke="#292D32" stroke-width="2" stroke-linecap="round" stroke-linejoin="round"/>
<path d="M5.29362 14.2667C6.76638 14.2667 7.96029 13.0728 7.96029 11.6C7.96029 10.1273 6.76638 8.93335 5.29362 8.93335C3.82086 8.93335 2.62695 10.1273 2.62695 11.6C2.62695 13.0728 3.82086 14.2667 5.29362 14.2667Z" stroke="#292D32" stroke-width="2" stroke-linecap="round" stroke-linejoin="round"/>
</svg>
