<svg width="32" height="32" viewBox="0 0 32 32" fill="none" xmlns="http://www.w3.org/2000/svg">
<path d="M15.9997 16C19.6816 16 22.6663 13.0152 22.6663 9.33332C22.6663 5.65142 19.6816 2.66666 15.9997 2.66666C12.3178 2.66666 9.33301 5.65142 9.33301 9.33332C9.33301 13.0152 12.3178 16 15.9997 16Z" stroke="#292D32" stroke-width="2" stroke-linecap="round" stroke-linejoin="round"/>
<path d="M4.54688 29.3333C4.54688 24.1733 9.6802 20 16.0002 20C17.2802 20 18.5202 20.1733 19.6802 20.4933" stroke="#292D32" stroke-width="2" stroke-linecap="round" stroke-linejoin="round"/>
<path d="M29.3337 24C29.3337 24.4267 29.2803 24.84 29.1737 25.24C29.0537 25.7733 28.8403 26.2933 28.5603 26.7467C27.6403 28.2933 25.947 29.3333 24.0003 29.3333C22.627 29.3333 21.387 28.8133 20.4537 27.96C20.0537 27.6133 19.707 27.2 19.4403 26.7467C18.947 25.9467 18.667 25 18.667 24C18.667 22.56 19.2403 21.24 20.1737 20.28C21.147 19.28 22.507 18.6667 24.0003 18.6667C25.5737 18.6667 27.0003 19.3467 27.9603 20.44C28.8137 21.3867 29.3337 22.64 29.3337 24Z" stroke="#292D32" stroke-width="2" stroke-miterlimit="10" stroke-linecap="round" stroke-linejoin="round"/>
<path d="M25.986 23.9733H22.0127" stroke="#292D32" stroke-width="2" stroke-miterlimit="10" stroke-linecap="round" stroke-linejoin="round"/>
<path d="M24 22.0267V26.0134" stroke="#292D32" stroke-width="2" stroke-miterlimit="10" stroke-linecap="round" stroke-linejoin="round"/>
</svg>
