<svg width="26" height="26" viewBox="0 0 26 26" fill="none" xmlns="http://www.w3.org/2000/svg">
<path d="M19.543 14.6792C19.088 15.1233 18.828 15.7625 18.893 16.445C18.9905 17.615 20.063 18.4708 21.233 18.4708H23.2913V19.76C23.2913 22.0025 21.4605 23.8333 19.218 23.8333H6.78134C4.53884 23.8333 2.70801 22.0025 2.70801 19.76V12.4692C2.70801 10.2267 4.53884 8.39584 6.78134 8.39584H19.218C21.4605 8.39584 23.2913 10.2267 23.2913 12.4692V14.0292H21.103C20.4963 14.0292 19.9438 14.2675 19.543 14.6792Z" stroke="#049473" stroke-width="1.5" stroke-linecap="round" stroke-linejoin="round"/>
<path d="M2.70801 13.4442V8.49338C2.70801 7.20421 3.49884 6.05583 4.70134 5.60083L13.303 2.35083C14.6463 1.84167 16.0872 2.83837 16.0872 4.2792V8.39585" stroke="#049473" stroke-width="1.5" stroke-linecap="round" stroke-linejoin="round"/>
<path d="M24.4384 15.1343V17.3661C24.4384 17.9619 23.9617 18.4494 23.3551 18.471H21.2317C20.0617 18.471 18.9892 17.6152 18.8917 16.4452C18.8267 15.7627 19.0867 15.1235 19.5417 14.6794C19.9426 14.2677 20.4951 14.0294 21.1017 14.0294H23.3551C23.9617 14.051 24.4384 14.5385 24.4384 15.1343Z" stroke="#049473" stroke-width="1.5" stroke-linecap="round" stroke-linejoin="round"/>
<path d="M7.58301 13H15.1663" stroke="#049473" stroke-width="1.5" stroke-linecap="round" stroke-linejoin="round"/>
</svg>
