<svg width="26" height="26" viewBox="0 0 26 26" fill="none" xmlns="http://www.w3.org/2000/svg">
<path d="M13.1738 11.7758C13.0654 11.765 12.9354 11.765 12.8163 11.7758C10.2379 11.6891 8.19043 9.57663 8.19043 6.97663C8.19043 4.32246 10.3354 2.16663 13.0004 2.16663C15.6546 2.16663 17.8104 4.32246 17.8104 6.97663C17.7996 9.57663 15.7521 11.6891 13.1738 11.7758Z" stroke="#049473" stroke-width="1.5" stroke-linecap="round" stroke-linejoin="round"/>
<path d="M7.75629 15.7734C5.13462 17.5284 5.13462 20.3884 7.75629 22.1325C10.7355 24.1259 15.6213 24.1259 18.6005 22.1325C21.2221 20.3775 21.2221 17.5175 18.6005 15.7734C15.6321 13.7909 10.7463 13.7909 7.75629 15.7734Z" stroke="#049473" stroke-width="1.5" stroke-linecap="round" stroke-linejoin="round"/>
</svg>
