<svg width="32" height="32" viewBox="0 0 32 32" fill="none" xmlns="http://www.w3.org/2000/svg">
<path d="M8 13.3331V10.6664C8 6.25305 9.33333 2.66638 16 2.66638C22.6667 2.66638 24 6.25305 24 10.6664V13.3331" stroke="#292D32" stroke-width="2" stroke-linecap="round" stroke-linejoin="round"/>
<path d="M16.0003 24.6667C17.8413 24.6667 19.3337 23.1743 19.3337 21.3333C19.3337 19.4924 17.8413 18 16.0003 18C14.1594 18 12.667 19.4924 12.667 21.3333C12.667 23.1743 14.1594 24.6667 16.0003 24.6667Z" stroke="#292D32" stroke-width="2" stroke-linecap="round" stroke-linejoin="round"/>
<path d="M22.667 29.3336H9.33366C4.00033 29.3336 2.66699 28.0003 2.66699 22.667V20.0003C2.66699 14.667 4.00033 13.3336 9.33366 13.3336H22.667C28.0003 13.3336 29.3337 14.667 29.3337 20.0003V22.667C29.3337 28.0003 28.0003 29.3336 22.667 29.3336Z" stroke="#292D32" stroke-width="2" stroke-linecap="round" stroke-linejoin="round"/>
</svg>
