<svg width="32" height="32" viewBox="0 0 32 32" fill="none" xmlns="http://www.w3.org/2000/svg">
<path d="M16.2134 14.4933C16.0801 14.4799 15.9201 14.4799 15.7734 14.4933C12.6001 14.3866 10.0801 11.7866 10.0801 8.58661C10.0801 5.31994 12.7201 2.66661 16.0001 2.66661C19.2667 2.66661 21.9201 5.31994 21.9201 8.58661C21.9067 11.7866 19.3867 14.3866 16.2134 14.4933Z" stroke="#1D1D1F" stroke-width="2" stroke-linecap="round" stroke-linejoin="round"/>
<path d="M9.54598 19.4134C6.31931 21.5734 6.31931 25.0934 9.54598 27.2401C13.2126 29.6934 19.226 29.6934 22.8926 27.2401C26.1193 25.0801 26.1193 21.5601 22.8926 19.4134C19.2393 16.9734 13.226 16.9734 9.54598 19.4134Z" stroke="#1D1D1F" stroke-width="2" stroke-linecap="round" stroke-linejoin="round"/>
</svg>
