<svg width="26" height="26" viewBox="0 0 26 26" fill="none" xmlns="http://www.w3.org/2000/svg">
<path d="M13.0221 3.1525C9.4363 3.1525 6.52213 6.06666 6.52213 9.6525V12.7833C6.52213 13.4442 6.24046 14.4517 5.90463 15.015L4.65879 17.0842C3.88963 18.3625 4.42046 19.7817 5.82879 20.2583C10.498 21.8183 15.5355 21.8183 20.2046 20.2583C21.5155 19.825 22.0896 18.2758 21.3746 17.0842L20.1288 15.015C19.8038 14.4517 19.5221 13.4442 19.5221 12.7833V9.6525C19.5221 6.0775 16.5971 3.1525 13.0221 3.1525Z" stroke="#049473" stroke-width="1.5" stroke-miterlimit="10" stroke-linecap="round"/>
<path d="M15.0259 3.46667C14.6901 3.36917 14.3434 3.29334 13.9859 3.25C12.9459 3.12 11.9492 3.19584 11.0176 3.46667C11.3317 2.665 12.1117 2.10167 13.0217 2.10167C13.9317 2.10167 14.7117 2.665 15.0259 3.46667Z" stroke="#049473" stroke-width="1.5" stroke-miterlimit="10" stroke-linecap="round" stroke-linejoin="round"/>
<path d="M16.2715 20.6483C16.2715 22.4358 14.809 23.8983 13.0215 23.8983C12.1332 23.8983 11.3098 23.53 10.7248 22.945C10.1398 22.36 9.77148 21.5367 9.77148 20.6483" stroke="#049473" stroke-width="1.5" stroke-miterlimit="10"/>
</svg>
