<svg width="52" height="55" viewBox="0 0 52 55" fill="none" xmlns="http://www.w3.org/2000/svg">
<g clip-path="url(#clip0_774_4285)">
<path opacity="0.64" d="M46.1707 12.82C47.3373 15.6083 47.979 18.6767 47.979 21.885C47.979 34.905 37.4207 45.4633 24.4007 45.4633C12.5357 45.4633 2.75898 36.7017 1.10232 25.3033C0.927318 26.5283 0.833984 27.765 0.833984 29.0367C0.833984 43.1533 12.279 54.61 26.4073 54.61C40.5356 54.61 51.9806 43.165 51.9806 29.0367C51.969 22.8883 49.799 17.2417 46.1707 12.82Z" fill="#049473"/>
<path opacity="0.64" d="M48.8066 41.38C48.1532 42.1733 47.0449 43.3633 45.3416 44.32C45.3416 44.32 43.2182 45.51 40.5232 45.825C36.1366 46.3267 21.7982 41.3217 17.9366 28.3717C15.0316 18.5717 19.0332 7.38333 28.0516 0.5C26.8149 0.558333 25.5782 0.71 24.3299 0.955C10.4816 3.70833 1.48657 17.1717 4.22824 31.02C6.98157 44.8683 20.4332 53.875 34.2932 51.1217C38.1666 50.3517 41.4216 48.5667 41.4216 48.5667C45.4232 46.245 47.7099 43.1183 48.8066 41.38Z" fill="#049473"/>
<path opacity="0.64" d="M48.9239 41.2983C48.2472 41.835 47.1272 42.5933 45.5756 43.0716C45.5756 43.0716 43.6272 43.6666 41.3756 43.445C37.7006 43.0716 26.8856 36.4216 26.0572 25.1516C25.4389 16.6466 30.7006 8.22331 39.2872 4.22165C38.2722 4.05831 37.2339 3.95331 36.1722 3.92998C24.3772 3.69665 14.6239 13.0766 14.3906 24.8716C14.1689 36.6666 23.5372 46.42 35.3439 46.6533C38.6339 46.7233 41.6206 45.8483 41.6206 45.8483C45.3072 44.67 47.7222 42.5233 48.9239 41.2983Z" fill="#049473"/>
<path opacity="0.64" d="M47.2318 41.9166C46.6952 42.1733 45.7968 42.5116 44.6652 42.5933C44.6652 42.5933 43.2418 42.6866 41.7485 42.1733C39.3102 41.3333 33.0218 35.0799 34.2702 27.2866C35.2035 21.3949 40.1385 16.5183 46.6252 15.1766C45.9602 14.8966 45.2718 14.6633 44.5485 14.4766C36.5568 12.4233 28.4252 17.2416 26.3835 25.2216C24.3302 33.2133 29.1485 41.3449 37.1285 43.3866C39.3568 43.9583 41.5268 43.8416 41.5268 43.8416C44.2218 43.6316 46.2168 42.5699 47.2318 41.9166Z" fill="#049473"/>
</g>
<defs>
<clipPath id="clip0_774_4285">
<rect width="51.135" height="54.11" fill="white" transform="translate(0.833984 0.5)"/>
</clipPath>
</defs>
</svg>
