<svg width="690" height="48" viewBox="0 0 690 48" fill="none" xmlns="http://www.w3.org/2000/svg">
<path d="M27.4579 6.865L30.9779 13.905C31.4579 14.885 32.7379 15.825 33.8179 16.005L40.1979 17.065C44.2779 17.745 45.2379 20.705 42.2979 23.625L37.3379 28.585C36.4979 29.425 36.0379 31.045 36.2979 32.205L37.7179 38.345C38.8379 43.205 36.2579 45.085 31.9579 42.545L25.9779 39.005C24.8979 38.365 23.1179 38.365 22.0179 39.005L16.0379 42.545C11.7579 45.085 9.15786 43.185 10.2779 38.345L11.6979 32.205C11.9579 31.045 11.4979 29.425 10.6579 28.585L5.69786 23.625C2.77787 20.705 3.71787 17.745 7.79786 17.065L14.1779 16.005C15.2379 15.825 16.5179 14.885 16.9979 13.905L20.5179 6.865C22.4379 3.045 25.5579 3.045 27.4579 6.865Z" stroke="#6E6E73" stroke-width="2" stroke-linecap="round" stroke-linejoin="round"/>
<path d="M187.96 7.02076L191.48 14.0608C191.96 15.0408 193.24 15.9808 194.32 16.1608L200.7 17.2208C204.78 17.9008 205.74 20.8608 202.8 23.7808L197.84 28.7408C197 29.5808 196.54 31.2008 196.8 32.3608L198.22 38.5008C199.34 43.3608 196.76 45.2408 192.46 42.7008L186.48 39.1608C185.4 38.5208 183.62 38.5208 182.52 39.1608L176.54 42.7008C172.26 45.2408 169.66 43.3408 170.78 38.5008L172.2 32.3608C172.46 31.2008 172 29.5808 171.16 28.7408L166.2 23.7808C163.28 20.8608 164.22 17.9008 168.3 17.2208L174.68 16.1608C175.74 15.9808 177.02 15.0408 177.5 14.0608L181.02 7.02076C182.94 3.20076 186.06 3.20076 187.96 7.02076Z" stroke="#6E6E73" stroke-width="2" stroke-linecap="round" stroke-linejoin="round"/>
<path d="M348.46 7.02076L351.98 14.0608C352.46 15.0408 353.74 15.9808 354.82 16.1608L361.2 17.2208C365.28 17.9008 366.24 20.8608 363.3 23.7808L358.34 28.7408C357.5 29.5808 357.04 31.2008 357.3 32.3608L358.72 38.5008C359.84 43.3608 357.26 45.2408 352.96 42.7008L346.98 39.1608C345.9 38.5208 344.12 38.5208 343.02 39.1608L337.04 42.7008C332.76 45.2408 330.16 43.3408 331.28 38.5008L332.7 32.3608C332.96 31.2008 332.5 29.5808 331.66 28.7408L326.7 23.7808C323.78 20.8608 324.72 17.9008 328.8 17.2208L335.18 16.1608C336.24 15.9808 337.52 15.0408 338 14.0608L341.52 7.02076C343.44 3.20076 346.56 3.20076 348.46 7.02076Z" stroke="#6E6E73" stroke-width="2" stroke-linecap="round" stroke-linejoin="round"/>
<path d="M508.96 7.02076L512.48 14.0608C512.96 15.0408 514.24 15.9808 515.32 16.1608L521.7 17.2208C525.78 17.9008 526.74 20.8608 523.8 23.7808L518.84 28.7408C518 29.5808 517.54 31.2008 517.8 32.3608L519.22 38.5008C520.34 43.3608 517.76 45.2408 513.46 42.7008L507.48 39.1608C506.4 38.5208 504.62 38.5208 503.52 39.1608L497.54 42.7008C493.26 45.2408 490.66 43.3408 491.78 38.5008L493.2 32.3608C493.46 31.2008 493 29.5808 492.16 28.7408L487.2 23.7808C484.28 20.8608 485.22 17.9008 489.3 17.2208L495.68 16.1608C496.74 15.9808 498.02 15.0408 498.5 14.0608L502.02 7.02076C503.94 3.20076 507.06 3.20076 508.96 7.02076Z" stroke="#6E6E73" stroke-width="2" stroke-linecap="round" stroke-linejoin="round"/>
<path d="M669.46 7.02076L672.98 14.0608C673.46 15.0408 674.74 15.9808 675.82 16.1608L682.2 17.2208C686.28 17.9008 687.24 20.8608 684.3 23.7808L679.34 28.7408C678.5 29.5808 678.04 31.2008 678.3 32.3608L679.72 38.5008C680.84 43.3608 678.26 45.2408 673.96 42.7008L667.98 39.1608C666.9 38.5208 665.12 38.5208 664.02 39.1608L658.04 42.7008C653.76 45.2408 651.16 43.3408 652.28 38.5008L653.7 32.3608C653.96 31.2008 653.5 29.5808 652.66 28.7408L647.7 23.7808C644.78 20.8608 645.72 17.9008 649.8 17.2208L656.18 16.1608C657.24 15.9808 658.52 15.0408 659 14.0608L662.52 7.02076C664.44 3.20076 667.56 3.20076 669.46 7.02076Z" stroke="#6E6E73" stroke-width="2" stroke-linecap="round" stroke-linejoin="round"/>
</svg>
