<svg width="47" height="47" viewBox="0 0 47 47" fill="none" xmlns="http://www.w3.org/2000/svg">
<path d="M17.7497 42.6669H29.2497C38.833 42.6669 42.6664 38.8335 42.6664 29.2502V17.7502C42.6664 8.16683 38.833 4.3335 29.2497 4.3335H17.7497C8.16634 4.3335 4.33301 8.16683 4.33301 17.7502V29.2502C4.33301 38.8335 8.16634 42.6669 17.7497 42.6669Z" stroke="#C5C5CA" stroke-width="2" stroke-linecap="round" stroke-linejoin="round"/>
<path d="M17.7503 19.6667C19.8674 19.6667 21.5837 17.9504 21.5837 15.8333C21.5837 13.7162 19.8674 12 17.7503 12C15.6332 12 13.917 13.7162 13.917 15.8333C13.917 17.9504 15.6332 19.6667 17.7503 19.6667Z" stroke="#C5C5CA" stroke-width="2" stroke-linecap="round" stroke-linejoin="round"/>
<path d="M5.61719 36.8207L15.0664 30.4766C16.5805 29.4607 18.7655 29.5757 20.1263 30.7449L20.7588 31.3007C22.2538 32.5849 24.6688 32.5849 26.1638 31.3007L34.1372 24.4582C35.6322 23.1741 38.0472 23.1741 39.5422 24.4582L42.6663 27.1416" stroke="#C5C5CA" stroke-width="2" stroke-linecap="round" stroke-linejoin="round"/>
</svg>
